/* XPM */
static char *_e5ea2dab7ad4382a9f471dd3cf958b1ZmUPgZS1Z9n9LY9d[] = {
/* columns rows colors chars-per-pixel */
"87 87 239 2 ",
"   c #1D0B00",
".  c #160400",
"X  c #2C0100",
"o  c #210F00",
"O  c #2F0801",
"+  c #350401",
"@  c #3C0302",
"#  c #330C01",
"$  c #3C0A04",
"%  c #3D0D09",
"&  c #251401",
"*  c #2A1602",
"=  c #2C1B06",
"-  c #2E1D09",
";  c #341301",
":  c #3B1306",
">  c #341B05",
",  c #3D1905",
"<  c #3E130B",
"1  c #331D0A",
"2  c #3C1B0B",
"3  c #3F1D11",
"4  c #3D2203",
"5  c #34220D",
"6  c #3B240D",
"7  c #372507",
"8  c #352511",
"9  c #3A2613",
"0  c #372A13",
"q  c #3C2A15",
"w  c #3E2D19",
"e  c #3D3016",
"r  c #3D341B",
"t  c #3E391E",
"y  c #2D220C",
"u  c #430302",
"i  c #4C0201",
"p  c #430A04",
"a  c #4B0B05",
"s  c #450C09",
"d  c #4A0A09",
"f  c #490708",
"g  c #530202",
"h  c #5B0404",
"j  c #540B05",
"k  c #5A0A06",
"l  c #5C0508",
"z  c #540C09",
"x  c #5C0B0B",
"c  c #570708",
"v  c #421305",
"b  c #4D1204",
"n  c #43140A",
"m  c #4C140B",
"M  c #431C0D",
"N  c #4B1C0E",
"B  c #4C1E06",
"V  c #511106",
"C  c #53130B",
"Z  c #5C120E",
"A  c #531A0E",
"S  c #5C1708",
"D  c #5F0F10",
"F  c #441E11",
"G  c #4C1C12",
"H  c #4F1611",
"J  c #551511",
"K  c #5B1511",
"L  c #541C14",
"P  c #5B1A14",
"I  c #5B1E19",
"U  c #620606",
"Y  c #610B06",
"T  c #620609",
"R  c #630A0B",
"E  c #690C0C",
"W  c #6A0A05",
"Q  c #63130D",
"!  c #68160C",
"~  c #640F12",
"^  c #6B0F10",
"/  c #641312",
"(  c #6C1211",
")  c #631D15",
"_  c #691C15",
"`  c #701A17",
"'  c #72110B",
"]  c #45220D",
"[  c #40280E",
"{  c #47240A",
"}  c #442414",
"|  c #4B2315",
" . c #422C15",
".. c #4C2916",
"X. c #442519",
"o. c #4C2619",
"O. c #422E1A",
"+. c #4C2C1B",
"@. c #522214",
"#. c #5C2216",
"$. c #54251A",
"%. c #5C241B",
"&. c #532B1D",
"*. c #5B2C1D",
"=. c #592916",
"-. c #44321D",
";. c #4A341D",
":. c #41391F",
">. c #4C391F",
",. c #4A3115",
"<. c #52331D",
"1. c #543B1E",
"2. c #583719",
"3. c #52220E",
"4. c #62241B",
"5. c #652B1D",
"6. c #682717",
"7. c #722B19",
"8. c #63321D",
"9. c #71311F",
"0. c #4F2F21",
"q. c #532E21",
"w. c #5B2D22",
"e. c #463521",
"r. c #4B3522",
"t. c #443B23",
"y. c #4C3A25",
"u. c #4E3D29",
"i. c #533523",
"p. c #5C3425",
"a. c #533C25",
"s. c #5A3B25",
"d. c #553528",
"f. c #5B3529",
"g. c #523D2A",
"h. c #5B3C2C",
"j. c #5C3D31",
"k. c #5A3B31",
"l. c #632C23",
"z. c #692821",
"x. c #732921",
"c. c #633325",
"v. c #6C3A25",
"b. c #63362B",
"n. c #6C332B",
"m. c #633C2C",
"M. c #6B3C2C",
"N. c #673526",
"B. c #723C2E",
"V. c #7B3B2D",
"C. c #763529",
"Z. c #633D31",
"A. c #6E3C32",
"S. c #7D3F34",
"D. c #65451F",
"F. c #4C4026",
"G. c #4D422A",
"H. c #474026",
"J. c #554127",
"K. c #5A4226",
"L. c #54422D",
"P. c #5B442D",
"I. c #5B492E",
"U. c #4E4630",
"Y. c #564531",
"T. c #5A4532",
"R. c #554A34",
"E. c #5C4A35",
"W. c #5E4D39",
"Q. c #5E513A",
"!. c #6B4225",
"~. c #62432C",
"^. c #6D442C",
"/. c #634A2D",
"(. c #644627",
"). c #75462B",
"_. c #78512F",
"`. c #634433",
"'. c #6B4433",
"]. c #624C35",
"[. c #6A4B34",
"{. c #634439",
"}. c #6B4538",
"|. c #624D3A",
" X c #6A4D3B",
".X c #7B4332",
"XX c #734C3C",
"oX c #764837",
"OX c #6B5235",
"+X c #66513E",
"@X c #64513D",
"#X c #69513E",
"$X c #6A533D",
"%X c #635137",
"&X c #72533D",
"*X c #79533A",
"=X c #6A4F41",
"-X c #7B4E41",
";X c #665541",
":X c #695240",
">X c #6A5542",
",X c #6D5541",
"<X c #6A5642",
"1X c #655943",
"2X c #6C5944",
"3X c #6E5C48",
"4X c #675C48",
"5X c #725344",
"6X c #735C45",
"7X c #745D4A",
"8X c #785545",
"9X c #6D6149",
"0X c #74614D",
"qX c #79614D",
"wX c #7E6A52",
"eX c #776652",
"rX c #80291F",
"tX c #85372A",
"yX c #8B362A",
"uX c #824539",
"iX c #87473A",
"pX c #835339",
"aX c #884B41",
"sX c #994C43",
"dX c #8A5648",
"fX c #955648",
"gX c #9C5B53",
"hX c #A15D52",
"jX c #866246",
"kX c #8C6652",
"lX c #9B6759",
"zX c #99624E",
"xX c #AA6B56",
"cX c #B47B62",
"vX c #C07562",
"bX c #BC8568",
"nX c #AF8366",
"mX c #C3886D",
"MX c #CA8D74",
/* pixels */
"O.L.|.:X,X|.T.|.>X>X|.Y.Y. X:X+Xg.E.E.@X2X- q >X<XY.Y.Y.g.E.>XT.g.P.,X#X|.#X].,X,X#X Xa.a. X X#X+XP.T.+X#X X XE.T.:X XE.T.Y.E.>Xw 0 1XW.L.W.u.+XT.I.+Xg.g.g.$X@X,XE.@X@X$X@Xa.",
"y.|.,X:X7X7X#X|.:X,X>X+X>X7X7X>X|.<X+X2X0X5 w +X2XW.|.W.L.W.2X|.|.|.qX7X6X6X,X7XqX7X7XT.P.#X#X,XeX#X X#X X X#X|.>XqX7X+X X X,XqXy.5 @X;XE.0X@X>X|.|.3X].|.|.qX2X2X%X3X0XwXwX$X",
"y. X:X|.,XqX:Xg.|.|.T.g.T.+X:X|.L.E.E.+X0Xq w @X+XE.|.W.u.Y.<XW.P.I.,X#X[.].I. X6X6X7XI.h.|.|.$X>XE.]. X|.|.E.g.E.+X|.g.g.Y.E.>Xg.- W.;XL.2X|.W.g.g.|.L.T.T.,X].T.J.].@X6XqX@X",
"-.T.E.Y. X,X].g.:X#X|.T.E.+X|.Y.-.L.L.W.3X0 w W.W.L.Y.Y.r.L.@XT.J.K.$X].].].P.].].#X5XK.a.].].#X+XE.|.+X X:X:X|.Y.|.Y.y.a.g.E.>Xy.* ;X;Xw Y.L.Y.L.g.|.L.T.T.$XI.].J.K.K.].6X].",
"-.g.T.E.+X|.E.|.|.+X:X+X+X:XE.y.y.W.|.+X2X- 5 T.W.g.g.g.y.E.<XT.J.K.OX].].].I.]./.].$XK.a.].].#X$XE.E.T.T.|.>X+XT.|.T.g.g.T.|.3Xe.  E.W.w L.g.L.T.L.|.L.T.I.$XI.@XP.P.K./.&X].",
"O.g.E.|.+XE.E.>XE.|.T.g.g.E.E.T.g.+X<X<X>X= 5 Y.W.y.y.y.r.T.<XT.a.a.]./.P.I.K.]./.].$XK.a.]./.].T.T.E.|.T.T.T.y.T.|.T.g.Y.E.|.>Xy.  u.Y.r.E.r.e.g.a.E.a.a.a.].a.P.K.I.P./.OX/.",
"w L.E.T.E.E.E.|.+X:X|.g.g.|.,X3Xy.E.W.W.<X- 5 Y.E.y.y.r.O.L.@XT.P.P.OX[././.P.].P./.OXa.1./.K.P.T.E.>X,X+X+X|.g.|.:X XE.E.|.|.+Xy.& u.Y.u.E.w -.g.J.+XI.I.K.|.K.P.K.[././.&X[.",
"w T.|.g.Y.|.E.T.g.|.>X+X|.+X X].u.E.E.E.+X1 5 u.W.g.g.y.w u.@X].J.K.[./.s.K.1.P.K.P.].1.1./.K.J.|.E.T.g.g.E.>X+XY.|.E.L.L.L.g.L.q * Y.W.Y.E.-.E.;.y.|.P.I.a.].a.s.s.P.1.1././.",
"e.L.Y.y.T.+XT.+X|.E.|.|.<X@Xu.Y.y.g.|.Y.T.= 5 E.T.e.y.L.u.T.@XP.P.K.].K.K.P.1.a.K.P.OXa.1.P.a.a.|.E.L.L.T.W.@X|.E.W.e.y.E.L.L.E.e.& Y.E.w u.Y.u.E.I.T.T.a.K.T.K.~.1.1.K.(./.OX",
"y.y.T.u.y.L.u.u.L.Y.E.L.T.|.u.L.-.y.E.Y.E.- 5 g.g.e.u.T.L.T.E.g.I.K.].P.K.P.1.K.OX].OXa.;.K.a.J.y.L.Y.L.u.T.|.W.W.<Xr.O.y.y.Y.E.w & y.u.q y.u.g.y.y.T.|.I.I.I.a.K.<.1././././.",
"0 5 e.-.q -.q 0 9 -.r.5 0 e.q w 1 5 O.e.y.* & 0 * o * 5 9 -.y.-.>. .;.;.;.,.[ ,.K.a.a.6 > [ [ ;.q q O.w q -.-.0 q -.9 w -.5 q w 8   0 8 * - - w w w ;.r. . .r.y.,.6 ,.a.a.1.,.",
"-.e.u.u.T.Y.w e.y.L.T.e.e.u.e.y.-.w r.Y.Y.w 9 -.-.0 5 q y.|.3X6X$XP.].OX$X#X].$X6XOX$XP.a.I.I.@XT.w q y.L.L.u.w e.y.y.@X|.r.u.E.y.w e.q 5 5 * e.|.|.$X#XI.I.$X6X@X].OX6X&XOX[.",
"E.2X|.E.eX<Xq g.@X@X2X@X@X@XL.@XE.L.T.2X+XT.L.T.W.y.0 9 u.@X<X>X#XK.].].|.].K.#X X].#X].I.].~.#X3Xw w |.<X<X<X@X@XW.g.L.y.u.<X3XW.L.E.e.O.q = g.T.E.2X6X].K.T.].I.I.].$X].I.].",
"E.+XE.L.3XT.- u.Y.Y.W.W.@XW.u.W.Y.y.u.@XL.g.u.Y.2XW.r.e.W.2X+X+X|.h.P.P.I.I.a.K.].P. X X].|.].,X@X5 w W.Y.u.W.@XY.W.r.5 = e.@Xu.Y.y.Y.y.O.0 * y.|.].>X,XI.a.I.].a.a.I.].I.I.].",
"W.Y.E.Y.u.-.0 u.Y.Y.W.Y.W.@Xg.Y.L.y.u.+Xr.y.g.T.T.Y.-.-.E.W.E.|.P.a.g.i.a.P.i.a.P.a.I.T.T.T.h.#X@Xq e.E.u.u.W.L.L.L.y.e.e.E.3Xg.Y.e.W.Y.r.w 5 L.|.I.T.T.y.;.I.@Xa.r.L.T.I.P.I.",
"<Xr.E.T.= & - q Y.W.@Xu.L.@XL.u.L.g.L.<Xe.y.g.E.L.Y.;.O.g.L.g.W.I.a.I.g.P.#X`.`.|.h.T.I.P.P.P.,XW.0 O.L.u.@X2Xy.-.= * e.u.u.@XY.L.O.E.E.r.q 5 y.L.a.T.@XI.a.I.E.].L.I.%X].].I.",
"a.J.I.a.;.w = q q L.u.T.I.%XJ.J.|.r.Y.W.R.G.u.|.`.`.&.o.h.P.L.%XY.L.L.y.P.].g.T.2XT.J.J.a.K.#X2XE.w r.>Xg.W.Y.E.w O.w L.T.L.W.@XI.y.T.].g.O.5 ;.I.J.%XE.L.L.L.$XI.J.I.].T.T.T.",
"P.P.].J.J.;.5 q * q r.I.I.$XK.]. Xd.T.W.R.U.y.T.T.`.*.o.s.L.L.Q.Q.E.E.L.T.T.y.T.T.a.a.I.a.a.P.T.L.q y.E.r.L.Y.E.- w y.+X>XT.E.L.I.>.K.I.a. .5 ;.I.y.L.E.%XW.L.E.T.J.I.].T.I.I.",
"K.1.a.a.J.a.5 5 r.L.E.T.a.].,.P.`.;.L.W.R.U.u.T.s.s.&.| r.a.u.R.W.T.E.Y.T.L.r.E.@XI.].$X].J.I.@XE.O.L.Y.Y.E.E.Y.q -.e.E.W.L.E.E.].a.I.T.a.;.q a.L.;.L.E.%XE.J.E.J.y.J.T.I.T.].",
"K.a.K.J.T.T.-.;.1  .T.@X].$X .<.h.O.L.R.G.t.e.L.T.`.s.i.a.P.T.E.u.r.u.g.T.L.;.T.I.>.a.I.a.;.a.].E.0 r.y.|.L.y.w u.y.w y.L.u.E.|.P.>.J.J.y. .6 ;.a.;.L.L.y.r.>.%Xy.;.;.J.J.L.T.",
"a.>.a.a.J.J.O.y.O.;.r.h.P.&Xs.[.#XT.<X1XG.t.r G.a.i.r.+.;.y.G.y.L.y.L.L.E.E.y.T.I.r.a.I.a.;.P.@XL.5 y.T.>Xy.w O.W.E.g.@X3X@X+XE.a.;.g.g.y.;.5 O.L.u.T.L.u.L.L.@XT.J.J.I.J.J.I.",
"K.K.].K.I.J.-.J.T.P.9  ...i.<.~.P.a.|.E.t.e 0 t.g.r.;.;.O.y.G.-.-.-.y.e.y.y.q -.y.;.u.I.a.y.J.T.r.q Y.|.|.-.9 u.L.g.e.Y.|.L.L.r.O.9 ;.r.;.O.1 q r.-.;.0 -.L.r.r.y.;.;.y.;.;.y.",
" . .;.;.;.O.1 w 6 ;.* ....| ..| +.6 ;.;.0 0 0 -.-.6 5 5 - w w * o 1 O.5 6 q = 6 q 6  .,. . .,. .-.e.g.u.-.O.5 -.-.O.5 O.-.q -.O.O.9 -.;.-.O.5  .w q q & * -.0 = q > 6  . . .;.",
"I.I.@X@X>X+Xg.E.,X7X2 ..] M '.*X&XI.#X@XT.].T.E.3XW.E.E.E.>X2Xy.= r.|.L.L.E.T.@X@X@X$X].].$X6X#X+X>XT.y.e.W.-.-.W.@XW.2X>XE.+X<X|.T.+X@X@X@XT.@X%X<X@X0 5 u.L.u.@XT.].$X@X@X$X",
">.a.].].+X|.g.g.|. Xs.} | ] *.-XXX Xs.`.a.J.;.T.J.L.L.G.@XY.@XL.  y.L.e.T.%XL.L.E. .a.#X~.s.m.&X|.-.L.-.2X<XO.r.<X@X@X@X@XE.E.@Xg.g.g.|.y.E.g.L.T.<X@Xe.- Y.L.r.].I.J.].y.J.J.",
"K.].T.J.#X:Xg.W.E. Xh.i.s.i.&.p.m.M.c.XX~.h.i.#XL.y.t.F.;XE.<XT.& g.T.u.E.@XT.E.K.i.a.<.p.XXXX'.].r.L.y.<X@Xw y.E.@X<X<XW.u.y.W.Y.i.g.E.r.Y.y.T.Y.@X|.e.- Y.Y.u.].T.I.$Xa.J.a.",
"$Xa.].].L.|.|.g.E.=Xh.i.[.`...] *.v.N.N.*.*.&.h.E.G.:.H.1XE.>XE.  e.g.e.L.T.L.I.T.P.`.m.b.v.B.dXa.r.u.L.+X2X-.L.L.E.E.@X<Xy.O.Y.E.g.g.|.r.g.y.E.W.>X@Xy.- Y.L.r.P.I.I.@Xy.a.y.",
"J.].].I.>X|.O.g.|.=Xs.+.`.[.+.M 8.uX.X5.4.v.m.m.$XG.r t.Q.Y. XY.& y.Y.y.L.E.E.].[.`.'.^.M.l.4.aXi.y.e.T.@X2Xw u.E.Y.y.E.7XE.-.L.Y.y.g.|.r.g.;.T.E.+X|.e.- L.u.y.E.].].2XI.].I.",
"T.O.,X7Xg.Y.T.w W.+Xg.O.h.`.i...b ) 6.) 6.6.5.s.#XG.r r E.L.|.g.1 y.Y.u.L.E.|.|.P.`.m.=.B.S.) C h.L.-.Y.|.+Xq -.+XT.y.E.3X|.g.Y.g.r.g.|.y.g.O.g.u.T.E.e.1 Y.g.y.E.].].$XJ.T.T.",
"a.P.#XE.T.Y.e.g.W.;XY.y.E.|.K.m.6.S _ yXsXC.N.oX[.L.t.:.R.L.=XT.5 -.u.y.r.L.E.T.h.p.'..XuXC.Z A m.L.-.L.<X+Xr.y.|.T.Y.E.E.L.Y.E.g.y.Y. Xg.T.y.g.Y.W.W.u.8 Y.y.e.E.].T.].;.J.J.",
"`. .|.#X-.g.T.e.Y.W.u.y.T.T.g.'.6.k ! rXiXx.5.v.s.J.F.r L.g. Xh.w -.u.y.r.Y.|.T.~.*.aXlXiX/ k C.h.g.e.y.<XY.u.g.E.y.L.Y.e.u.E.L.g.y.g.T.y.W.u.y.Y.W.W.u.8 u.-.q ].@X].@Xy.I.I.",
"a.O.T.E.a.L.y.w y.y.w 0 e.-.O.h.=.S Q Q yXtXV.N...a.>.8 -. .h...2 6  .q q >.a.<.p.*.dXfXC.P C %.s.g.e.w Y.w q w Y.w -.y.O.Y.+X-.e.O.r.e.9 Y.e.w w e.u.-.= e.w 9 r.u.a.J. .y.r.",
"-.w 9 O.-.O.w O.9 w w * q w e.q 5 ;.v p C.sXiXiX3., 4 4 { { jXcXnX!.4 4 7 4 { @.#.aXhXuX%.| o.9 w e.9 w -.q q 5 O.-.w -.0 w q -.e.0 9 w = 0 = 9 9 9 w 9 = - 5 = q - -.;.q q 5 ",
"<X<X@XW.@X<XE.y.|.<X@Xe.T.E.+XW.t F.;.n C x.sXhXfX_.^.(._.pXbXMXmXcX).2.K.2.{ v.V.hXfX5.m +.W.4X+X+XY.|.@XE.E.y.E.|.Y.L.-.g.u.L.L.y.L.E.g.<XW.2XT.E.@X|.L.L.T.L.Y.q -.u.E.<XE.",
"<X2X<XW.@X2XT.w |.@XE.O.u.L.|.Q.t y.`.N.V ) iXfXzXpX!.2.v.pXmXMXbXbX_.D.(./.(.lXpXfXC.m *. X>X4XW.L.u.E.E.E.|.e.Y.+XE.L.-.T.E.|.@XE.E.T.-.L.e.r.L.E.<X+XY.L.Y.g.@Xw O.g.<XeX<X",
"@X<X@XW.@X+XL.w Y.E.Y.w y.u.|.@Xe y.[.oX5.) x.V.iX.X^.!.v.V.xXvXcXzX_._.2.OXjXkX*XB.A m '.5XW.W.W.y.y.W.L.L.W.O.y.W.Y.u.w T.E.W.>X<X<X@Xu.+XY.L.g.Y.@X|.g.y.g.y.W.-.e.g.E.<XW.",
"<X@X@X<X<XW.L.u.Y.E.T.-.Y.Y.+X>X-.T.`.m.n.#.P V.v.8.8..X9.! rXyXtX7.6.!.2.OXOX/.'.*.@.*.'.T.E.eX<XY.T.>XY.g.E.O.L.<XE.L.-.T.T.T.g.u.L.Y.-.W.L.u.u.L.W.E.u.u.L.u.T.-.u.L.Y.Q.E.",
"+XW.E.@X@XY.u.u.L.L.g.w L.g.T.E.w  X[.m.B.#.m v..X*.v 5.S i h W g S b B [./.a./.s.] | '. XT.E.9XY.y.u.|.Y.y.L.-.L.W.L.L.-.T.Y.T.W.T.W.|.u.|.L.L.y.y.L.Y.u.g.Y.u.u.6 -.u.T.@XE.",
"+X@X|.@X+X@XT.u.|.E.L.-.T.L.E.E.9 I. X[.^.&.N ] *X^.*..X6.Y W ' ! 7.9.=.*Xs.1.]...; ..&X$X].T.u.L.L.y.W.+XY.T.g.g.L.r.y.-.Y.L.E.u.r.g.E.u.W.L.T.g.g.T.E.Y.E.E.u.-.1 w u.L.W.Y.",
"Y.W.E.Y.|.2XE.-.<XE.L.-.E.T.W.W.y.y.P.~.i.<...# , 2.M.fXx.Y h h g i V..X*X,./.J.6 > P.5Xa.y.E.u.+X|.g.|.2XT.u.r.+XW.y.u.e.L.L.E.L.e.y.E.r.L.-.y.u.u.Y.E.L.Y.g.O.-.q L.E.Y.T.L.",
"E.T.Y.E.+X+XL.-.+XL.L.e.L.u.E.E.-.w ;.J.].,.i.6 > , '..XhXQ ( i g x fXdXdXm.P.> ;  .`.].a. .y.%X|.L.-.E.<XL.u.-.L.E.g.Y.- Y.T.L.e.y.e.E.-.|.e.Y.L.y.u.L.L.L.u.w g.q  .J.T.I.I.",
"L.L.u.y.u.L.y.-.E.y.e.9 r.r.W.+Xq 9 q r.J. .y. .2 M '.oXgX) x./ Q x.gXuX-Xm.~.; [ i.~.[.;.} } y.T.E.L.E.W.L.L.e.L.T.L.E.O.@X<XE.u.y.e.Y.O.E.y.E.L.u.L.L.y.u.g.r.g. .;.I.T.T.].",
"u.L.u.y.r.y.u.y.E.L.L.e.u.e.g.u.;.e.L.E.@Xr.g.-.> ; | M.aXP K z j C C.4.c.G G X &.h.P. X;.i. .a.-.L.g.g.u.y.g.-.r.y.y.y.-.L.L.r.u.e.e.T.-.E.y.T.y.y.g.y.w -.y.r.O.6 q a.a.y.J.",
"1 9 q 9 q w w 5 = - 9 - q 0 O.9 O.q = & = . * > X.: : M.oXP p @ @ @ n.dXlXl.n X M o.M i., +., ..1 w 0 q w q O.5 9 q w 5 5 5 9 5 - o = -.5 O.5 9 0 q O.q 1 6 w 6 5 * > q  . .;.",
"y.T.@X+X>X>XE.y.3X2X>Xg.T.E.3X:Xy.E.@X,XqXy.O.3 | n $ l.l.m @ @ G + @ m I u p $.p.b.| p., i.| <.@XE.g.|.3X+X@XL.E.@X@XE.T.T.|.3XL.w g.2XE.+XE.|.Y.E.|.W.T.W.E.r.$XI.T.$X6X6X6X",
"y.E.<X>X2X2XE.-.<X@XE.w -.w O.= a.a. .6 i.2 } q.# $ @ m $ X + n < < % $ m s p s $.$.n ] ; ..] +.$XE.r.E.<XE.T.r.E.@XE.L.y.y.L.3X<Xw L.>XT.|.+X>XL.Y.E.E.T.|.T.q #XI.I.@X$X6X6X",
"-.L.W.E.Y.E.L.r.g.Y.E.y.T.E.Y.9 +.f.+.+. X..| @.s s u p $ X < F < 3 + X @ u u J L %.@.@.N *.p.m.T.E.u.Y.E.Y.Y.e.E.:Xu.L.-.y.r.>X+X0 y.W.u.g.E.E.T.T.E.Y.L.W.T.O.I.a.a.T.].@X$X",
"O.L.E.L.s.T.|.`.T.E.E.;.T.|. Xr.i.`.`.'.kXc.L m C d u @ s + % X O # X p H u u P C P #.N N ..i.a.;.E.L.g.g.Y.].y.P.|.+.P.r.`.s.qX>X0 L.<XY.L.T.L.T.T.T.u.y.L.L.O.a.y.a.T.I.].$X",
"w O.g.s.i.&.M F 0.{.`.X.{.h.X.3 +.s.`.p.$.L C V C j a u @ @ @ + + + @ @ u i k Z x Z P @.} X.;.y.g.r.h.`.i.> 2 0.i.'.&.i.f.XX-XXXs.w L.E.g.W.W.u.-.u.T.Y.g.g.y.;.J.a.I.].I.].OX",
"-.y.T.s.q.G # < m.5X{.X.k.{.k.d.} O.| M p p j z i i i u @ @ @ + @ @ @ u i c l R Q x b N o.i.y.y.i.P.T.s.h.{.h.+.2 +.; M G p.b.h.T.w g.W.E.>X<XE.L.E.W.E.L.g.g.a.P.a.I.].].].$X",
"e Y.|.h.Z.&.: q.d.5X{.r.k.=Xj.f.i.f.h.c.%.P j i g g j a f p $ $ @ @ @ u j k l l g k C m M } r.u.y.|. Xh.h.|.{.i.d.`.} i.i.h.h.`.T.9 y.E.T.|.E.E.Y.E.W.Y.g.y.g.a.a.,.y.J.a.K.].",
"0 L.T.a.{.s.F `.h.:XT.T.k.=Xk.h.Z.f.| v u u i i i i i i f u @ + $ @ @ f z x l h h Q 4.#.G } r.T.r.y.g.L.s.r.r.i.T.|.+.g.a.s.i.h.].O.g.E.Y.L.y.L.Y.E.E.Y.g.g.g.I.a.>.a.I.K.I.].",
"t.R.L.y. X`.O.].E.Y.w w 8 O.3 0.f.&.N m a a k k g g i i s p $ $ % $ $ p z x l h h g k C L $.+.+.`.-.O.Y.:XE.g.g.L.E.-.L.g.L.L.E.Y.O.g.Y.L.y.-.L.Y.E.W.E.T.L.P.T.K.a.I.@X].].].",
"t.F.u.;.T.P.O.h.:XT.u.u.O.O.X.+.| $.l.n.x.) x g l k j i f p p % + + @ @ i g g h h k x K #.*.w.f.h.s.y.g.T.E.L.y.y.T.-.u.y.u.u.L.O.5 O.-.e.-.0 e.-.e.y.y.e.O.O.-. .9 ,.a.a.>.>.",
"0 0 ;.,.i.i.} r.O.O.e.w w 9 X.: | m m a i i i g g g i u @ + + + + + + @ u i g h u i i u u u m $.} r.i.+.X.O.O.w 9 y.0 q 8 w w w O.9 w q -.-.- 0 0 0 w r w 9 9 O.9 5  .y.;.,.,.",
"T.T.2X$X X`.i.h.y.g.W.O.y.T.8XZ.L L P P Z k h k Q R c i u u $ % # $ $ u u i h U ( U g g Z 4.z.*.f.i.+.i.h.T.h.y.y.+XL.T.Y.:X<X:XE.g.u.e.L.L.5 - e.e.u.L.g.y.g.].T.J.T.$X$X#X#X",
"].K.[.h.8XXXm.i.T.,Xr.2 3 +.}.Z.l.L C z k x R h ` R g i u p $ + + $ p u i g h h ^ h h Q K I P n w.p.h.f.h. X8X X].|.s.y.r.L.3X|.g.y.E.|.3X<X0 y E.@XW.3X|.T.g.:Xg.;.g.E.T.J.I.",
" XP.[.h.XX'.f.i.i.|.|.T.h.m.b.G l.I K K x R T h R h g i u p $ @ @ $ p u i g g g h h / _ K P z.%.*.o.&.p.f.Z. X}.h.`.h.h.y.g.:XE.g.a.T.E.2X<Xw q R.@XE.@XL.L.a. Xa.;.g.].].T.].",
"$Xs.&.; M M , ] 2 } i...| b.b.l.%.J C C k l T h h g g i i p @ @ @ p f u i g h h h h / ) K I l.l.oXp.p.m.i.o.| } i.h.T.E.s.g. XT.L.g.L.E.>X+Xe.w E.<XE.E.g.L.g. Xg.r.L.E.T.P.I.",
"[.].&X[.XX'....... .`.i.+.Z.w.%.%.L C z i g h h g g g i u u $ $ @ u u u g l T h Y h x K P #.%.@.p.&.f.`.h.q.q.q.i.s.g.T.g.L.:XE.L.g.g.E.>X|.e.w Y.<XE.E.y.Y.g. Xg.y.L.E.T.L.J.",
"].P.h.s.m.'.h.$XP.a.].i.0.Z.p.c.A.l.P C i g g g h h g i u @ $ p u u u i g l T h R k Z P P %.*.| 2 } h.{.j.h.T.h.P.h.i.g.g.L.+XY.g.L.g.E.2XE.-.8 u.@XE.E.g.T.g.|.y.r.L.W.E.E.|.",
"a.a.I. X X$Xa.[.I.L.r.6 +.s.p.b.n.%.L z i g k h T l g i u u $ p u i i i g h h g k x ) 4.L L w.i.} r.`.|.g.s.s.r. XE.y.L.L.L.|.L.g.Y.u.E.>XL.w = y.W.E.@XE.E.P.+Xu.y.L.E.T.T.].",
"I.J.y.a.>.K.>.@XT.9XY.u.|.i.2 : w.L m m j x R h T l g i u p u u i i i i g l h g k k P I L @.&.+.X.w y.E.Y.u.g.u.W.E.L.E.Y.L.W.L.g.T.y.E.+Xu.q * -.L.L.<XE.E.g.>XL.u.L.Y.u.g.L.",
";.r.a.].I.].y.@XL.9Xw 6 P.+.2 F M.*.L P Z Z x g l g i i u f u @ i i i i j x l g x g i C A @...2 s.w -.E.Y.y.e.y.Y.Y.Y.@XE.Y.@XT.g.T.e.T.@Xy.q * 0 e.e.E.L.g.r. XL.u.L.L.g.L.T.",
"T.J.a.T.].L.y.E.e.Y.y.O.T.r.i.q.&.%.I K x c l l x x i u u f f u @ u u u u u i j k x k j L @.| ..} i.|.g.-.u.t.y.u.t.0 E.y.|.y.E.E.T. Xg.y.Y.w & 9 e.w L.E.<XL.L.E.T.a.I.P.y.I.",
"O.;.r.y.u.w 9 r.9 -.1 o X.> X.} : $ u u i g g g c j i u @ u u u u u u u @ @ i j g k g i V A @.p.<.2 X.w O.w - y e.r 5 w O.a.+.O.O.1 O.O.O.O.5 1 0 y.e.y.w -.w t.-.;.;.a.a.;.y.",
"g.T.|.>X+XL.u.W.3X0XE.r.|.h. X X&.L C z D ~ ~ x g z j i u i u u u u i u u i x / h R k g j V @.p.XXh.`. X,X<Xy.-.e.R.<XY.u.i.h.s.P.O.g.].T.g.O.r.L.2X2X@Xw -.u.@Xg.I.J.@X@XI.].",
"g.E. X3X3X|.E.2X+X>Xg.O.Y.i.`.`.b.w.L K / ~ T h c x x z i i i i i i i i j x Q / R ^ R k Z V b N | f.5X{.Y.E.e.q 0 L.<X|.g.y.g.g.|.g.|.,X+XE.r.r.E.7X0X<Xw y.E.0XT.].T.].].I.@X",
"g.g.L.E.+XE.Y.@X@X>XY.r.|.h.`.Z.| H d z x R T h g c z z i i i i g i i g c l h g E E h h k j p v n q.}.i. .-.O.e.0 q 1 y.-.T.+.;.g.O.g.g.g.E.L.y.T.+X<X@Xw L.W.<XL.].T.T.J.y.K.",
"E.E.E.|.<X@XE.@X:X2XT.r.`.r.r.} M m J Z x R R R h g g j i i i g g g g g l T h g W U g g k Z C N w.| | 2 ; > 1 r.-.-.= y.w E.g.].y.O.r.9 9 T.E.L.W.@X@X<Xt.W.<XE.a.@X@X@XT.y.J.",
"L.E.E.|.@XE.T.|.+X>XL.O.T.+...} M L I ) x h h h T g g c c g g g i g g l l R T U U U h g Z P A L A.w.w.&.q.r.O.r.O.u.e.e.5 y.L.+Xg.y.g.9 = r.g.g.E.E.@X@X-.T.E.r.-.T.].@XI.a.I.",
"y.T.W.|.|.E.T.+XE.@Xg.O.|.h.`.h.o.w.n.z./ l l R T g g g c g g g g g h l g g h U h U U l Z C p v $.f.XX'.'. Xr.1 ;.L.L.w w u.T.g.E.T.+Xg.9 r.g.T.E.W.<X<X-.Y.E.r.;.T.].%XT.I.@X",
"Y.T.|.>XE.u.u.E.+X<XT.9 Y.P.T.`.&.b.n.P c l T h l R l x D g i g l h k x k g g h h T l z z L w.b.q.| p.} f.5Xr.r.#XT.y.r.w y.-.L.Y.r.g.g.g.E.L.g.r.2X<XW.L.|.L.u.;.y.T.@XI.J.J.",
"g.g.E.+XE.L.Y.@XL.E.Y.9 +.9 } ..o.w.%.J x x R l h R x D ~ l g h l g g k x k g h h l Z Z L $.p.m.w.n F F `.8Xi.s.|.T.L.Y.e.g.w e.g.r.T.Y.g.T.g.g.y.>X@XE.L.W.L.L.L.J.@X$XT.J.I.",
"g.P.E.|.T.g.L.W.<X@XT.O.E.h.i.} o.| m C x x x l h c c x ~ c g h R g g k Z Z x k x x Z P $.w.h.`. Xo.o...Z.{.X.+.P.Y.E.|.Y.+Xg.T.g.i.|.|.L.T.g.L.u.2X@XE.g.|.T.E.E.I.].@XI.J.J.",
"r.r.y.y.e.O.-.y.u.-.w 1 i.i.0.2 o.F n m K x c g g g g g c g i g g i i i g g i i k k z J L $.0.i...2 } } r.i.O.g.r.r.r.y.-.E.L.W.-. .g.i.-.r.O.-.O.Y.y.r.w y.e.L.;. .;.y.;. . .",
"y.a.g.L.L.g.L.Y.O.O.y.O.+.X.i.r.} 2 n m K x c g g l g g g g i g g g k g g i i i x c z C H F X.r.h.P.h.y.a.i.O.r.g.P.g.r.q T.L.E.g.O.g.y.r.g.y.r.e.T.y.y.-.u.y.T.y. .;.a.a.y.y.",
":X:X>X>X<X+X@X@X>XE.>XE.`.h.|.h.> F | L K D x c x x c l l h g h R ( ` ( R k l k T x x J m M X.d.;.r.r.y. X5X X|.|.:X+XT.r.+XE.|.>XT. X|.|.>X|.E.E.3X@X<XE.+XW.9X#XJ.J.@X$X$X2X",
":X:X:X+X|.E.L.u.3Xg.g.y.h.i.i.2 > +.b.l.P K x x x x x x ~ l h T U E ^ R k h h g T l x K H G q.`.g.g.r.g.T.y.O.9 g.|.|.L.-.@XY.Y.].g.|.E.T.|.Y.L.T.<XW.+XE.W.E.2X,Xa.y.I.].].$X",
" X#X+X+X@X|.E.L.@Xg.E.h.s.+.i.2 > a.XXn.P C x l g l c l / T h h U E E T Y Y h g h l x K C H p.5X`.|.E.,X XO.9 r.L.|.|.g.O.].L.L.g.y.].T.g.L.g.a.L.|.E.%XY.T.L.@X7XJ.;.J.I.T.@X",
"#X,X3X+XE.T.E.|. XT.r.s.+.&.< : 2 i.b.@.m C x g l h T R R T T R U ^ ( R U T h i R k j C I l.l.w.m.+.s. X`.g.h.r.6 I.#XJ. .].K.K.K.a.#X|.L.7Xa.a.J.T.T.J.T.].].+XE.J.;.T.|.L.].",
"|. X:X+X|.E.W.|.|.E.{.`.b.G v # < &.p.L b C x g T U U R E U U R R ( ( R U T h g k x Z C C A 5.B.'.m.`. X[.h.i. .P.[.].a. .].I.].a.>.].].I.wX].].J.].T.I.].|.@X$XT.J.;.T.].P.|.",
"E.|.|. X|.W.E.T.E.g.j.o.w.G *.*.n $.*.A a j k i R T U R R U U R T E ( T U T h g k Z / z i p C %.w.q.F 2 } i.i.a. XT.a.>. .I.a.T.g.;.J.J.a.6XT.T.a.I.I.J.T.].].@XT.L.r.T.].P. X",
" X X+X>X<X@XE.L.Y.a.i.} $.$.A.oXG w.N.#.V j k g R T U T U h h T h R R l h h h g k k k j C a a u oX}.| # M i.i.P.].T.J.a.;.%XJ.I.I.y.a.g.y.$XI.K.I.].T.I.].].].$XE.I.y.T.E.L.|.",
"L.L.L.T.E.Y.y.-.g.h.i.h.p.M.c.l.H l.n.4.C z x l R l h h h h l l l l l l l l g g g i i j K P C d L w.G : o.f.;.O.y.J.J.>.q E.u.y.I.a.a.T.J.6X@X%XJ.I.a.y.a.a.J.T.T.T.a.T.T.g.E.",
"|.E.|.|.+X@XW.T.y.s.+.h.q.b.G s p L 4.Z i g x l l h g h l g g c g g g g g g g i g g i i i j z C s G @.$.m. X[.P.T.$X$XI.r.<XE.E.u.y.;.I.a.].T.I.@X@XT.I.T.I.T.$Xg.L.y.L.P.y.P.",
"O.O.O.-.-.-.O.O.r.;.} } | $.N p @ a j i i i g c g g g g g g i g i i i g g g g g g g g i u u u i m n n n M ..;.w  .-.-.e 5 y.e ;.;.;. .y.q ;.;.;. .;.q q  .q 6 ;.-.y.-.g.g.r.g."
};
