/* XPM */
static char *a859862408234dfad0604dcdaab517470rhoySzNpfU6flie[] = {
/* columns rows colors chars-per-pixel */
"87 87 256 2 ",
"   c #19170E",
".  c #2D0402",
"X  c #2C090A",
"o  c #290805",
"O  c #340402",
"+  c #3C0202",
"@  c #330A02",
"#  c #3B0A02",
"$  c #33060A",
"%  c #3C040A",
"&  c #330A0C",
"*  c #3C0A0C",
"=  c #2A1706",
"-  c #381606",
";  c #380B11",
":  c #2D1D1A",
">  c #291916",
",  c #341515",
"<  c #341C1B",
"1  c #3B1B1B",
"2  c #381716",
"3  c #2C0E16",
"4  c #182513",
"5  c #382605",
"6  c #29241A",
"7  c #372819",
"8  c #39331A",
"9  c #2E300D",
"0  c #2C1C22",
"q  c #371C23",
"w  c #3E0F21",
"e  c #192B29",
"r  c #292926",
"t  c #342423",
"y  c #382A27",
"u  c #2B3329",
"i  c #3A332C",
"p  c #363629",
"a  c #362D36",
"s  c #293637",
"d  c #353333",
"f  c #3C3333",
"g  c #373938",
"h  c #2C2D35",
"j  c #1A1D21",
"k  c #440202",
"l  c #4C0201",
"z  c #430B03",
"x  c #4B0A03",
"c  c #44030A",
"v  c #4C030A",
"b  c #430B0C",
"n  c #4C090C",
"m  c #530102",
"M  c #5A0102",
"N  c #540B02",
"B  c #53030A",
"V  c #5B020A",
"C  c #5B0B0C",
"Z  c #580B07",
"A  c #471805",
"S  c #581504",
"D  c #470A12",
"F  c #580812",
"G  c #471618",
"H  c #561619",
"J  c #620102",
"K  c #670407",
"L  c #640714",
"P  c #6A140A",
"I  c #472805",
"U  c #562A05",
"Y  c #493407",
"T  c #573607",
"R  c #482817",
"E  c #552818",
"W  c #48341A",
"Q  c #583717",
"!  c #662A03",
"~  c #673B05",
"^  c #763C03",
"/  c #673B16",
"(  c #763412",
")  c #4E1C22",
"_  c #641724",
"`  c #472928",
"'  c #562927",
"]  c #473628",
"[  c #563727",
"{  c #462D34",
"}  c #433334",
"|  c #4B3334",
" . c #443439",
".. c #443A3A",
"X. c #483B38",
"o. c #563938",
"O. c #582C33",
"+. c #663A2A",
"@. c #64393A",
"#. c #6A2C2E",
"$. c #364637",
"%. c #3A4111",
"&. c #5B4418",
"*. c #52480F",
"=. c #6C4401",
"-. c #684605",
";. c #744301",
":. c #7B4400",
">. c #7B4B01",
",. c #774907",
"<. c #7A5501",
"1. c #694618",
"2. c #774817",
"3. c #785519",
"4. c #6C530C",
"5. c #7C6315",
"6. c #594627",
"7. c #484538",
"8. c #57453A",
"9. c #4F512F",
"0. c #694825",
"q. c #774B24",
"w. c #785526",
"e. c #6C5136",
"r. c #70672E",
"t. c #3A3A41",
"y. c #583D42",
"u. c #443944",
"i. c #693D47",
"p. c #3C4345",
"a. c #36555A",
"s. c #3B5C61",
"d. c #474749",
"f. c #584746",
"g. c #4C5757",
"h. c #535B5D",
"j. c #585859",
"k. c #505549",
"l. c #674846",
"z. c #655555",
"x. c #6F4F4F",
"c. c #53615B",
"v. c #74684F",
"b. c #595C61",
"n. c #6F5E64",
"m. c #83390A",
"M. c #883E21",
"N. c #864A03",
"B. c #835301",
"V. c #8C5C01",
"C. c #885706",
"Z. c #965A06",
"A. c #885717",
"S. c #965A16",
"D. c #8D4C12",
"F. c #A15C07",
"G. c #8C6301",
"H. c #896904",
"J. c #936301",
"K. c #936B01",
"L. c #9B6B02",
"P. c #996608",
"I. c #9A7504",
"U. c #886616",
"Y. c #976616",
"T. c #9C7418",
"R. c #8A730C",
"E. c #A56807",
"W. c #A67807",
"Q. c #B37A08",
"!. c #A56918",
"~. c #A77817",
"^. c #B47717",
"/. c #B26D1A",
"(. c #885A25",
"). c #8F582A",
"_. c #896627",
"`. c #976627",
"'. c #997628",
"]. c #997838",
"[. c #8D6F34",
"{. c #A56A26",
"}. c #A77826",
"|. c #B67826",
" X c #A87837",
".X c #B77A37",
"XX c #AA6833",
"oX c #B15C2B",
"OX c #C07A2F",
"+X c #927047",
"@X c #AF7646",
"#X c #8A5E5E",
"$X c #C07E4E",
"%X c #9B840D",
"&X c #A98508",
"*X c #B5840A",
"=X c #AA8516",
"-X c #B68817",
";X c #B99617",
":X c #B4950D",
">X c #BAA40D",
",X c #9A8431",
"<X c #B78727",
"1X c #BA9625",
"2X c #B78737",
"3X c #B99636",
"4X c #A8882E",
"5X c #BAA330",
"6X c #C39A1A",
"7X c #C4881F",
"8X c #CAAB16",
"9X c #C59926",
"0X c #C79837",
"qX c #CA8F35",
"wX c #C9A528",
"eX c #D6B629",
"rX c #C9A635",
"tX c #D5AB36",
"yX c #D9B637",
"uX c #D0AC2C",
"iX c #E2B73A",
"pX c #E0BB2F",
"aX c #E49B3F",
"sX c #DCC230",
"dX c #EBD031",
"fX c #E6D31F",
"gX c #96884B",
"hX c #B38D4A",
"jX c #B7A753",
"kX c #B8A76F",
"lX c #C69647",
"zX c #CE934F",
"xX c #D5AA48",
"cX c #D3B04F",
"vX c #E5BA48",
"bX c #E6B152",
"nX c #D2AE68",
"mX c #E5B167",
"MX c #E09E52",
"NX c #DAC348",
"BX c #E8C547",
"VX c #F9D54C",
"CX c #EAC755",
"ZX c #F7CA55",
"AX c #FBD758",
"SX c #F0CF48",
"DX c #FFE55B",
"FX c #FDEC47",
"GX c #FCD965",
"HX c #FED874",
"JX c #F5C869",
"KX c #FFE568",
"LX c #FFEE77",
"PX c #FAEF8C",
"IX c #FAE295",
"UX c #D4B788",
/* pixels */
"d d d d d d d f d d d d d u u u u u u s s e s $.u u y y d h s h a a a a a a a a a a a a a a a a g h s s s d f y i p u u s s s a h r h d d d h d f f f d d d d i d u u u u u u ",
"..f f } } } { } } } ............f ..g d s s $.s p } | | |  .t.t.a f  . . . . . . . . . . .{ {  .u.g g g h d | | ] ] p p g g g u.u... .....f f y t y y f } } } f ..} } ....f f ",
"x.l.i.l.l.l.i.@.@.@.i.i.l.l.o.y.o.x.z.d.d.z.f.| o.o.@.@.@.@.y.y.l.l.x.x.x.x.x.x.l.l.l.l.l.8.8.l.o.y.f.f.d.f.x.x.x.l.l.l.l.z.x.x.f.f.o.y.o.| | | X.y.f.l.z.z.z.x.o.o.o.8.@.o.o.",
"D b c b D b c c D n D b D D b b H O.y.f.f.n.@.H z z z x n n b * O O # # # z z # z # # z z # # b G ) | f.f.f.i.#.c c k O O O O O * & $ & & $ @ $ o o . . $ $ $ $ * % b D D % + ",
"v l v B B m B B B m v B n n v v v D t X.y.x._ V m m m N M M B l l N N N N Z Z N l l l l l l l N + + 1 | f.f.o.H F L C C Z N B B v c c v n n n n n n v v v v n n v v v n n v v ",
"m m m V M m M L m m m m m B l l F c > d.f.#X_ L M m m N M M m m l m m m m m m m m m M V V m V C m c 2 } f.z.y.G B M M M M m M M m m m m M m M V m m m l m m m m m l l l l l l ",
"l l l m m m m m m m m m N N l l B O   $.f.#XL K M m m m M M m m m M M M M M M m m m m M M m m m m # , p d.j.y.G v M M M M M M M M m m M M m M M M m M m M M M M m l l l l l l ",
"N m l m M M m m m m l m m m l l m O 4 $.k.#XL K M m l l M M l l m M M m M M V m M m m V M m m m l # 5 p d.j.f.G B M J M M m m m M m m m M m M M m m m m m m m m m l m m m l l ",
"l m M m m M M m m m m l l l l l k . 4 $.k.#XL K M B k l M M C l l V m V V l M Z l m m l l B Z m N # 5 7.$.c.8.G F m L M J M m N l l l l l m N N l l l l l l l N l m m m l l m ",
"l m m m m M M m M m m m l l l l l @ 4 $.k.#XF L m C l N m M C l P S k m S m l k l N S S x k k x k . = 8 9.v.[ b V m K m M C m l l l l l l l l l l l l k k l l l l m m l l l l ",
"m m m m m M M M M M m m m m m l k O 4 $.7.x.L L m l k P K M m l k S ! ! ! ^ ^ ^ ^ ! ! ^ ,.;.;.,.m.2.1.Y 6.e.+.Z K J K l m M B m l l l l l m m B m m l l l l m m l m m m m l l ",
"B B B m m m m m B m m m v l l l + & > p f.n._ V V M m M J m J S ,.D..X X{..X{.{.Y.Y.}.lXcXbXcXbXmXMXnX-.&.+X! S M M M m m v B F l l m m m B B B m m m m v l v l v v v v v v v ",
"% % c c c c c c c c c % % + + O O ; > d d.l.G + O l S k J P XXXXlXB.C.|.bXJXcX0XK.rXHXPXLXLXLXPXPXIXlX'.hX X@XP J m k l x z c c v v v v v l c k l l v l v l c k c c + + + + % ",
"& $ $ & * $ $ * & * & & & X X X X 3 > r d.f.` G # + N ! S.S.zXzXqXV.^ ;.!.xX0X<.=XyXGXGXAXAXAXAXvXrXT R.lX XMXD.S.^ + # @ O $ % O + + % $ $ % % % % % % % % % $ & X . . . X & ",
"i t t t q q q y t t t t t t t 0 t a d t.d.k.k.v.e./ ^  X2XY.C.P.B.Y.!.B.>.!.-X>.9XrXuXwXwXuXeXuXwX<.H.<.V.}.Z./.OX X~ Y = 7 ` ` y t t t t t y y y t 7 : 6 t t y i y t t t y i ",
"z.f.o.| | { | o.| o.o.| | | | } {  .{  .7.$.e.v.&.].}.3XG.K.V.B.~.xXHXHX|.:.P.L.<X9XrXrX9X1X9XwXuXAXCXCXK.>.L.V.Y.hX,X+X0.e.x.l.n.z.z.f.f.8.8.f.d.$.d p i | X.f.z.l.f.f.f.z.z.",
"#.' ) H H H H H E E E H H H H H F #.D ) ' I 0.-.5.cX3XI.CXKXSXwXrXGXvXJXP.N.N.|./.^.^.~.~.~.~.~.-XyXAXVXwXwXAXAXBX%X3XjX_./ +.#.+.@.#.#.#.#.H ' X.d.g u ' ' ' ' #.#.' ) ' ' ' ",
"C C B B F F C C Z Z S N N Z Z V F F l l A A T 3.U.cX1X&XyXeXsXSXDX;XG.B.:.qXZ.Z.Z.F.Z.P.Y.Y.U.C.=.G.G.tXLXVXpXeXeX%X=XmX`.^ l P A n F B V K V n { d.p.i E P F F H C F C C C C ",
"m l l l v m m m m m m m m m m m F B B l A U =.'.=.B.G.-XuX6XVXDXwXJ.;.J.B.S.{.{.S.S.S.S.S.Y.C.>.U.H.<.L.7XSXKX;XeX:X<.<.;.2X:.S k k B B m M V k q u.d.} H K V V m m V M m m l ",
"m m m m m m l l l m m m m m m m l M N k U A.'.3XbXxXAXZXtXiXBXG.B.J.E.zX2X^ ^ ! 2.2.,.,.,.,.;.^ '.hXT.B.J.Q.9XiXeXsXDXBXxX3X~.`.A k l B l l m + 3 u.d.| H K K K m M V M m m l ",
"m l B B B B l l l l l l l l k l m N k ! `.hXxX0XvX;XGXLXZX-XI.J.L.^.|.^ ~ 2.U q./ / / / ~ ~ ~ ~ =.A.}.Z.V.L.L.6XAXAXKXwXrX9X0XlX(.U l l k l l + 3 u.d.| _ K K K M m M m m l l ",
"l l l l B B l k v l l l l k k l N l x `.mXcX1XI.G.BXLXyX9XI.B.L.E.qX}.^ 2.0.Q e.[ [ 0.1./ / / 2.-.~ hXlXP.P.E.Z.*XSXKXuXI.&X1XxXmX`.S k x x x + 0 t.d.o._ K J K M m m m m l l ",
"l l l l m m l l B v v v l l l l l k ! {.lX<XG.I.W.vXiXQ.L.;.<.P.0XlX:.2.w.[ ] ` ] ] W W R U Q / 2.,.`.MXzXV.N.Z.L.-XtXCXW.H.<.3XlX}.! x z z + . 0 t.d.y._ J M K M M M M M N N ",
"m m m m m m l l B v v m m l l m S ! S.C.V.I.W.BXpXuXL.L.J.B.2XB.B.N.2./ R 8.t i f y y W W R R Q -.-.~ Y.B.B.qXN.Z.J.W.tXtXBX=XH.B.Y.D.! A A z # 3 a d.f.#.M m L M M M M M M m ",
"M V V M M M m m m B B L m M m ( `.^ S.P.=XCXeX6XDX6XL.V.<XcXnX(._.2./ Q [ y 6 j > j > 6 7 8 W W Y 1.~ A.`.Y.zXbX|.~.V.;XKX=XBXBX~.P.{.^ ].2.z . > h t.z.E Z C m m J J M M M M ",
"l l l l l m l l F v l B k l S XXlX2XV.<XyXBX&XpX6XJ.L.V.T. X[./ w.1.T R 7 7 6 6 6 6 u p p p y 8 R Q T 1.1.-.`.{.!.V.E.L.9XBX%XBXvX9XZ.}.zX`.z @   g g.n.' l z k l m m m m B B ",
"* * + O # z z + D + O z O A ,.nXMXB.~.vXyXwXDXdXDXB.W.~.~ T 0.0.&.W 8 7 > > > 6 7 8 p p p p p y ` o.` [ 6.Q 3.2.;.Y.^.;.KXSXFX>XeXvXB.2XmXnX~ @ = u d.n.[ A - @ b z # O O # O ",
", , , - - - - - 2 ; & - @ I -.3X<X~.G.yX&XyXeXyXZXJ.~ >._.q.I W 7 9 6 6 > = = 7 8 8 8 8 8 p p i t a y } ] W &./ (.^ B.V.SXeXeXdX8XuXJ.~.4X2XA.U W } k.v.+.A , o o @ @ o = , = ",
"{ | | ] W W ] [ ` ` R W T _.U.=XCXGX9X9XiXVX&X9XJ.E.Y.A./ Q 6.7 6 > > > = - I R Q Y Y W W i i d a a a d i i [ Q 3.,.Y.W.B.8X:XsXsX:XvXHXJXT.S.(.Q [ n.#X#X#.' ` ` ] ] ] ] X.i ",
"z.z.l.o.] ` [ [ l.x.+.Q w.hXT.G.GX1XwX:XDXyXwX-XJ.xX<.~ w.Q 7 > r j j > < R Q / / / 1.&.6.] i h a t.g s d p ] W 0.2.N.0XW.&XyXsXDX&X;XtXvXK.|.zX[.e.v.#X#X#Xx.x.@.@.@.o.8.8.d.",
"x.i.O.H b z z z + l k N ).mXqXW.-X&XK.yXAXBXuXZX>.Y.,.3.Q 5 > : e j j t ` [ / 2.2.2.2.1.[ ] y d d g g u u u 8 W Q 1.;.S.;.ZXvXyXVX8XI.&X1X~.qXMX).A 2 # Z B % O % v D D G | y.",
"n.i._ B m V C B C C m S D.MX^.N.J.I.H.VXeX&X9XJX>.A.2.Q - 7 > : j j 6 ] 0.2.2.^ N.A.3.1.W 7 f g 9.9.k.7.p p u 8 W Q 2.S.N.JX=X;XeXFXH.I.<.<.^.MXA.z z + N m D D F F F c % G ` ",
"b.z.H C M J m m m J l N.<X~.^.HXCX&XfXfXFX8XZ.!.S.q.Q W t : > : = 9 6.q.^ N.S.S.`.3.0.6.7 i d.k.r.IXkXe.7.7.d 6 7 W / A.S.P.G.sXFXdXeX8XVXAX-X^.`.).z k k N c + m V l c $ & y ",
"p.y.n M M J M m m P S ^ V.G.~.tX-X;XFXfXfXFX0XZ. Xw.7 > j r : 5 5 Y 1.A.Z.!.|.|.'.[.5 = p p 7.r.jXR.,XkXe.8.u g g y E A.{.P.9XBXsXfXFX8X>XtXE.V.S.D.l l l m k B m M l k O X t ",
"d.y.n J J J M m m m m.mX0XK.~.qX1XBXDX8X:XBXvXB.A.1.= r r r   = -.C.`.{.|.|.!.!._.Y 7 y i W r.IXR.<.<.4XIX6.p h g t I ,.Y.>.vXCX1X8XFX>XI.0X}.V.xXMXM.Z v m k N M J m l + . < ",
"f.l.C K J J M m K l ( mX2X>.V.0X;XZXKXtXuXtX0X=.4.Q = 6   4 4 *.-.P.{.|.OX|.^.<XY 5 7 X.7 *.jX=X<X~.J.;. X[.e.$.u p 5 T >.~ 0XbX3XyXFXfX-X0XY.:.qXMXM.k k V m M M J m l + @ < ",
"f.l.N J M J B B l Z ( hX XU.<.G.:XVXtXqXqX0XK.-.-.Y = r   4 4 *.<.!.|././.^.-XrXhX*.] 7 6.jX1XK.W.Q.7XE.C. XgX9 8 p 8 Y -.;.J.1X3XxX8XeX~.V.N.!./.lX( m M K l m M M m l + @ < ",
"j.l.C J M M m v B C m ^ A.C.;.=.&X8X;.Z.Z.~.~ U.*.5 = 6 r 4 4 9 2.!..X|.^.W.W.=XcX].5 W [.'.=X&XL.7XE.E.qXB.].r.%.8 7 W 1.`.;.E.B.H.<.wX<X:.^ Z.N.N.l l N m k P m M l l + & 1 ",
"z.x.F K M M m v V M P @X.XY.N.^ %X&X>.Z.|.qX<.,X*.= = = ] > u p I ( `..X^.&X&XI.=XjXjX].,X4XI.=X<X!.|.qX!./.>.U.*.8 7 ` [  XV.<XzXA.<.&XP.U :.S.<X}.! Z l k + Z m M l v % $ 1 ",
"d.f.n m m m v c F V ( @XS.:.N.:.dXFXvXZ.qXMXhX'.5 o R [ v.W p y 7 R 1.U.P.W.*XW.=X=X4X4X}.T.|.}.'. X X{.OXE.<X<.4.Y 8 ] R +X2XbXhXY.iXDXbX;.N.:.P.!.! x + D b + k v c % $ . q ",
"g.d.) O O O X X $ O ( ^ Y.T.>.<.SXVXBX~.E.<X3X5.= - U [.nXhX5 ] f 6 W Q '.T.W.*XW.-X&X~.~.}. X].Q W [..X/.^.^.P.;.1.Q R R ).zXlXY.V.ZXSXJXB.V.V.Y.;.! O O . $ . . X X o o > 0 ",
"a.p.} 1 , > : > o E U ,.<.<.=.<.>XsXAXV.C.P.U.3.I Q +XhXY.2XUXQ 7.u > = &.U.<XK.*XJ.W.9X~.T.}.-.6.  Y ]..X^././.Y.3.&.I Y q.A.S.>.V.AXBX9X>.>.>.Y.2.Q - G - 1 q 0 6 6 : j 6 r ",
"s.g.f.8.X.] g g | [ I ,.<.CXGX=XNXyXtXtXHX~.,.2.I _.].2X!.0X2XjX%.9 7.7 R T Y.^.Q.Q.Q.^.}.2XT.Y 5 8 8 I 3.2X|.!.D.2.e.W Q w.,.}.HXtX6XvXrX-XZXCX,./ E R Q R {  .....g g g $.d.",
"b.b.x.x.l.l.f.f.[ +.! ^ K.HXrXW.rXyXvX&X9XT.=.1.T U  XY.~.~.-X3XPX*.9 ] - I C.^.*XQ.^.|.S.2XrX4.5 8 ] = 5 (. X{.A.2.e.' R 1.,.J.9X&XeXVXI.W.rXLXC.q.+.+.e.+.o.y.l.f.f.f.f.z.z.",
"w D B M Z n * $ _ k m.oXN.E.Q.W.;XKX;X&XG.~  X(.I U Y gXU.T.;XI.5XjXY *.1.].2X~.W.<X!.{.qX}.W.rX4X5 8 7.6 5 w. X_.~ ' ` R w.~.>.G.:X>XdXK.K.<XY.V.A.S n H b # b D F n n n D n ",
"v B M J M Z b + l J P oXOXN.E.-X6XKXeXH.-.=XhX_.I U 5 I gX'.W.-X%X5XPXI ,X'.~.<X~.|.{..X.X!.&X;XrX'.*.u g y 5 1.1.T ` | [ [.0XL.<.H.fXfXK.~.B.B.|..XS l v k k N M M M M M M m ",
"l m J J m x # O c N P OX|.B.G.>.W.dXdXFXSX&XY.A.~ Q [ > 7 gX}.W.W.L.=XLX1XH.5XI.~.}.C.N.}.^.W.W.&XcXgX9 p $.  9 W ] 8.[ &.U.W.W.KXSXdXfXK.V.>.N./..XS l m m m M m m m m V V N ",
"k m M M m k O O k l ! XX{.G.=XLX8XFXFX>X8X&XV.2X[.Q 7  .y 8 ].4X-XQ.-XW.W.=XI.'.,XT - ~ A.}.<XQ.W.=XcXgX8 u 7...X.8.l.6.r.'.V.*XwX>XFXsXyXHX3XY.!..XP m M J M M M m m m m m l ",
"l l m M M m l k l + ! `.hXT.xXZXK.;XVX6X6XL.0XlX XQ W | y t ] +X XW.W.Q.*X~.'.,X&.9   5 *.3.|.^.Q.*XT.nXUXe.6 f.f.z.6.0.[.cX9XL.;XyXSXI.I.JXcXY.lXS.! N N m m J m m m l l l l ",
"k l l m m m l k l A S ^ {.~.<X-XG.W.GXuX;XV.J.{.(./ 0.o.} f h ] ].2X<XE.~.2X[.&.=   9.  [.=.|./.Q.*X=XhX[.] X...7.7.r.1.C.T.>.W.*X;XKXI.K.<XT.2X'.,.S N N m M M m l l l l l l ",
"l l l B m B l k + z # ^ `.V.B.L.-XI.rXGXCX-XV.T.`.w.0.6.| } r 6 Q _.}.}.}. Xe., > 7.9 r.,XJ.^.OXW.=X'.3.9 7 7...f.x.e._.'.Y.K.-XSXAXtXW.~.P.J.C.S.! N m m M J m M M M m m m m ",
"k l l m l l l k + z z (  XC.^ V.U &X=XGX-X9XbXmX'._.w.6.6.7.d i 7 Y r.hX+XQ , , X.= [.,X4X1XE.7X!.2X3.5 9 u p 7.8.e.0.(.'.mXcX1X-XAX*XJ.:.:.:.Y. X! m N m M L M m m m m m m l ",
"v m m B B m m v l x x S $X.XZ.N.wX;XG.vX<XT.0XmX>.'.].w.6.7...i f 7 6.v.r.5 = | ] W nXT.W.Q.^.!.@X+XW = 6 u p 9.v.1.hX`.~ HX3X=XW.AXV.9X^.^ Y.{.@X! k N l l F V m m m m B v v ",
"c c l l l l c c + O O + XX{.S.P.KXBXBXrXcXxXxXxXT 3XjX5.*.6.8...u r u p p 6 7 W r.nXT.=XW.E.<X X+X7 7 p u $.9.9.0.w.nXzX;.xX5XcXvX9XvXHXHXT.~ hX[.A O z x + % c c l l c z z + ",
"X X & @ @ @ @ o = o o @ 0./ ~ '.KX6X=XK.0X4X^ ~ <.rX3XU.4.&.e.f.g g s h r 6 9 Y jX3XW.L.<X<XT.+X[   r $.p 9.e.0.3. X2XqX^ U <.H.tXK.=XbXIX'.-.-.Q - . @ & & $ ; O O O O . . . ",
"} } ] ] ` ` ] ] i ] 7 = Y &.I =.1XCX9XP.V.{.V.V.K.-XI.T.'.3.6.8.f.d s t.s u 9.gX%XI.W.<X}.'._.Y > h d...7.e.0.w._.T.<X~.~.<.G.=XB.I.xXcX'.-.T &.I I - = , 1 q ) G R R 7 7 7 7 ",
"j.z.z.f.8.[ ] ] ] ] 8.W = &.r.-.=.~.xXB.:.Z.<XZ.J.I.K.I.4XhX1.0.8.7.g g h 6 *.,X=XK.<X!.@XgX5 5 u g ..l.e.0.-.hX4XK.G.L.E.L.~.L.=.K.4XU.=.-.w.1.W [ [ | | f.l.o.l.8.l.o.| 8.7.",
"f.f.o.' R R R R R R ` R @ I 0.~ >.^ C.:.S.S.MXHX-XtXZXAX<.'.=.1.&.6.8.....p 5 I Y.4X}. X[.Q 5 7 p p 8.0.q.(.D.V.V.GXZXyX-XZXbXZ.B.>.B.;.,.-./ I A R R G ) ' ' ` ' E ' ` t X.d.",
"i.@.' H n B Z Z C v v x k k S ( A.~ C..XlXY.qXZX-XuXiXZX0X>.Y._.2.w.e.8.X.y , 5 U +X].[.1.= 8 p 9.*.v.q.D.D.!.N.9XGXyX;X&XZXaXF.xX~.S.D.A.( ! z k n n c c D D c n n G * X 1 X.",
"i.@.H B m M J M M V l l l k l ! (.A.{.{.{.N.P.<XvXwXtXiXK.<X~.C.;.-.2.+X#Xe.' [ # / _.T - I W 9.9.&.[.A.^ Z.^.-XW.wXuXuXGXtX^ N./.S.`.A.( S x k l v v l v m v l m C B x O & | ",
"i.O.H l m M M M m C v + k + + A ).hXzX`.C.B.T.~.Q.PXiX*XW.rXvX1XT.B.=.(.@X+Xe.1.U - ~ I Y [.[.jXnXnXjXT.P.qXtXiXW.:XNXGXW.B.qXN.N.{.zX@XD.x l l l m B m m M m m M J m B k * | ",
"y.O.G x m M M M m L B + + # O # Q +XhXA.=.;.V.I.G.W.BXuXwX;XuXvXG.V.;.~ `.nXmXnXjX'.].hXjXcXcXcXcX5XR.B.L.vXtX9X;XwXZX=X>.0XB.C.;.(.@X).S O + + l v m m m M M M J J m V l # ` ",
"o.' G n M J J J J J m k z # O O A / 1.~ =.>.I.tXW.I.K.CXvX:XK.6X:XuX2XC.C.2XrXuX5X1XcXPXPXPXLXLXKXwX;X1X;X1X-X&XyXBXK.I.T.3X}.~ -.~ -.A # O n F c l l l m m m M J K m Z k . ` ",
"o.` G l m M J J J M m l l k O O O A A T =.-.V.xX1XB.W.W.9XVXSX>XVXVX0XB.;.P.9XeX>XuXKXLXGXKXDXDXSXW.yXKXAX9XyXAXwXI.I.G.2XcXA.=.1.U I @ # O z + v l l l l l l M J K m Z k . ` ",
"x.o.G # k m m m M J V V B l k k k k # A ~ A.,.~ >.}.!.L.J.W.VXDXAXdX9X:.^ C.^.W.9XtXvXvXcXvXNXvXtX^ tXZXGXKXZXW.L.L.=X!.;.^ ,.~ / A O @ # + + b z l l l k k x N K J K V k * G ",
"O.` G b n n m l M M m m m l l l + + + z U 3.(.A.N.lXmX<XC.V.Q.W.yXiXrXV.N.D.{.S.<X9X9X9X1X1X3X3X~.N.bXZX0XW.E.J.J.<XbXlXC.2.).).H z O O k k + z x l m m k k l l m m m v + * R ",
"@.' G b + k v m M M m m v v l c + # O . - U 1.2.~ `.zXY.:.~.W.>.<.B.B.~ ~ ^ D.Z.^.^.*XQ.W.=X=X~.!.! ;.>.V.V.T.~.=.Y.2X'.-./ / U k k + % v B v v v m K V B l m l F n D b X 3 t ",
"o.{ 1 X . O + z + k z c % # O . $ & X . o @ 5 I / 3.(.=.^ 3XbX<XY.=.~ 2.2.! ^ !.|.-X-XQ.^.<X<X<XY.=.<.C.Y.}.cXlX=.=.3.3.T I A . O O . . + c % % + k v v + + + % O . . o o > r ",
"g g d p p y y y y y y y t 7 6 : 3 q < , , , 5 5 Q w.w.3.~ }.HXmX_.1.T 1./ U ! S.Z.Z.Z.Z.F.E.E.S.A.I U ,. XJXIX].-.4.w.0.Q - - , 7 r 6 6 , , < < < 1 G 2 > > , 1 1 < 1 < : t i ",
"g g d p p i i } 7.X.} i p p p f { { q < , , = = @ Q 0.w.T -.hX].Q Q Q +.E / 2.`.S.Z.Z.Z.F.F.Z.S.3.U T T U _.gXU Y 1.0.W - - 2 >     4 4 6 < t i y y ` 1 6 4 6 7 { ` { | ` } X.",
"f.f.X.| | o.o.o.l.l.8.o.o.8.8.f.n.x.l.o.| ` R R = 7 7 R I 5 U - 5 ' W E A / / 2.D.N.N.N.N.N.D.D./ I Q 1.I Q 0.T - Y R @ @ 2 , X r 4 e g X.o.o.8.o.o.o.' i p ] | ' ' o.i.l.x.#X",
"* * $ b b b c % c c b b b * * * ; ; & & @ . . o < > > = - R I E 7 R , R R 0.1.q.2.,.:.:.:.^ D.D.q.A A R I - o I . @ o @ & . . 3 :   4 i ' G * * * * b * @ @ * b * O * D c c D ",
"V V V m M L V m V V V V B B B v v b x x z # @ o o > : : > o @ - 2 , 2 R E +.0.0.1.2.2.2.2.1.+.+.Q E A # # # @ . @ O O O O $ $ & , > 7 ' _ L C V m V L V l x B B x b n n l v B ",
"J K M M M K M m m M M M M m m m m m m m l k # @ X > 0 0 > X o @ @ O O # A R E U U U U U E E E E A z O O O O O O O O + + + + % $ < > ` O._ K K J M J K J m l M M l l n l l l m ",
"m N m l l m l k l l l l l l l l m m M M m m k O X > 0 0 > 3 X . O O O O # # # # # - - - - - - - O + O O + # # + + + + + k k c # < 6 ] O._ J J M M M J M l k m M l l l l l l m ",
"m m l l l l l k k k k x x l l l m m M M M m l # o > t 0 3 3 & $ + + + + # # # # O O @ @ @ @ @ @ O + + + + k k k k k k k k k k # : 6 ] [ L J J M M M M m k k m M l l l l l l l ",
"m N m l l l l k k k k l l l l l l m m M M m l + X < t 0 3 & $ + + k + + + + + O O O O O O O O O + + + + + + + + k k k k l l l O > r X.[ L J J J M M J M l l M M m m m m l l l ",
"M m m m m l l l k l l l l l m l l l m m m m l + X q { t ; @ + + k k k + + + + + % % % + + + + O + + + + + + k k k k l l l l l O : u 7.o.F J K J M M J M l l m M M M m m m m l ",
"M M M M m m l v v m m B m m M m l v v m m l c $ X y | ` 2 # k k k k k k k k c c % % c c k + k + # + + % + k c c k k l l l l l O 6 u $.o.H K J M M M M N x l m m M J M M M m m ",
"M M M M m m l m l l m m m m m l c c v B B v c $ o ` 8.o.G b l l k k k k k k k c c c c c k k k k k + + + + + k k k k k l l l l O r s 7.o.H V M m m m m N x x l m M M M M m m m ",
"m M M V V m m l m m m m m m m l c c v v B v c $ o t f.l.O.G b v l l l l l l l k k k k k l l l l k k k k k k k k l k k k l l k # < f | o.G F m m m M m m l l l l l l m m m l l ",
"n n n n l l l l l l l l l l l k + $ c c c c + . o t 7.8.] 2 % c v x x z x x x x k k k k k k x x k l x l k k k k z z k k # # # @ <  .o.o.G D k v l m B l x x x z z x x x x x x ",
"O . . . . . . . . . . . . . . . X & $ O + + @ o = t 7.7.| 1 & O O O O O O O O O # O O O O O # * O O O O O O O O O O . . . . . . > f ..o.1 2 $ * O + + O O O O . O O O O O O O ",
"> > : : : : < < : : : < < : : : < < 2 ; ; 2 1 > > u 7.k.f.| ` 2 , , , , , , , , , , , , , , , , 1 1 1 1 1 < < < < < < < < < < < r t.d.f. .| ` ` 2 1 1 2 2 1 < , , , , < 1 1 1 ",
"d d d g g g d d d d d g g g g g ..X.} ` ` { } i u $.k.j.j.f.f.o.X.X.X.u.X.u.u.u.....X.X... .f y } }  .} f f f f f f f f f g g g h t.p.g.d.d.....X.X.X.} }  . .} y y f f  . ...",
"p.p.d.d.d.d.d.p.p.p.d.d.d.d.d.d.j.j.k.f.f.f.f.d.k.k.g.c.j.j.z.z.j.j.j.j.j.j.j.j.j.j.j.j.j.d.d.d.d.d.d.d.d.t.t.g t.t.t.p.d.d.d.d.p.p.p.g.d.g.p.d.d.k.k.d.d.d.d.d.g g d.d.d.d.d.",
"j.j.j.b.b.b.j.j.j.j.b.b.b.h.b.h.c.c.j.j.j.j.j.g.c.c.c.c.j.j.z.z.h.h.b.h.b.b.b.h.b.b.b.b.h.h.g.g.b.b.b.b.h.h.g.g.h.h.h.h.h.h.b.h.h.h.g.b.h.b.g.h.h.h.c.h.j.b.j.j.g.h.h.h.b.b.b."
};
