/* XPM */
static char *fc9fc4a280db447394c1782f28adc225yGiyqApTXom01JW6[] = {
/* columns rows colors chars-per-pixel */
"87 87 256 2 ",
"   c #020202",
".  c #0B0202",
"X  c #060808",
"o  c #160505",
"O  c #191717",
"+  c #0F110F",
"@  c #2E150D",
"#  c #162519",
"$  c #2A281C",
"%  c #362B10",
"&  c #2C1C24",
"*  c #19302C",
"=  c #252526",
"-  c #2C2C2C",
";  c #292827",
":  c #362A2A",
">  c #2A3429",
",  c #34342A",
"<  c #2B2D33",
"1  c #322D33",
"2  c #372C38",
"3  c #293536",
"4  c #343434",
"5  c #3B3B3B",
"6  c #373637",
"7  c #171923",
"8  c #51130B",
"9  c #780707",
"0  c #7C140E",
"q  c #701112",
"w  c #472505",
"e  c #4F3011",
"r  c #6D2517",
"t  c #433A39",
"y  c #4F2E2B",
"u  c #783936",
"i  c #6D2E2C",
"p  c #651B24",
"a  c #39433C",
"s  c #2B4236",
"d  c #2A432E",
"f  c #735002",
"g  c #43433C",
"h  c #554B31",
"j  c #734835",
"k  c #6B6122",
"l  c #3A3A43",
"z  c #2E3843",
"x  c #463B45",
"c  c #753E45",
"v  c #3A4645",
"b  c #2F434E",
"n  c #434343",
"m  c #4B4B4B",
"M  c #474847",
"N  c #554745",
"B  c #494854",
"V  c #4D5655",
"C  c #545454",
"Z  c #5C5C5C",
"A  c #565758",
"S  c #50524E",
"D  c #68564B",
"F  c #655958",
"G  c #775A58",
"H  c #6C4B49",
"J  c #5A645A",
"K  c #556850",
"L  c #726C57",
"P  c #575B65",
"I  c #4F5061",
"U  c #665D66",
"Y  c #7A5C6A",
"T  c #5B6564",
"R  c #4E6A67",
"E  c #646464",
"W  c #6C6C6C",
"Q  c #676867",
"!  c #776869",
"~  c #6A756A",
"^  c #77766C",
"/  c #776C74",
"(  c #747473",
")  c #7B7C7B",
"_  c #787877",
"`  c #6B7275",
"'  c #890406",
"]  c #940102",
"[  c #9C0201",
"{  c #980707",
"}  c #870815",
"|  c #990715",
" . c #861716",
".. c #951618",
"X. c #8E1407",
"o. c #A40202",
"O. c #AB0101",
"+. c #A90908",
"@. c #B40101",
"#. c #BB0201",
"$. c #B80409",
"%. c #B91307",
"&. c #A80A14",
"*. c #B70816",
"=. c #A91919",
"-. c #B71517",
";. c #A8140A",
":. c #902516",
">. c #A6241A",
",. c #8D1B29",
"<. c #B71B26",
"1. c #AD1426",
"2. c #8F2D30",
"3. c #AC282F",
"4. c #C30101",
"5. c #CB0201",
"6. c #C80708",
"7. c #D40101",
"8. c #DC0101",
"9. c #D60609",
"0. c #C91309",
"q. c #C70915",
"w. c #D60715",
"e. c #C81415",
"r. c #D31716",
"t. c #D21405",
"y. c #E30201",
"u. c #EC0101",
"i. c #E70607",
"p. c #F40301",
"a. c #FB0301",
"s. c #F80607",
"d. c #EA0614",
"f. c #F60B13",
"g. c #C91225",
"h. c #CE2A2F",
"j. c #F30C20",
"k. c #894903",
"l. c #895005",
"z. c #89463B",
"x. c #8C732E",
"c. c #966718",
"v. c #933A44",
"b. c #AA3845",
"n. c #884747",
"m. c #885959",
"M. c #985856",
"N. c #904C4A",
"B. c #AB5354",
"V. c #8B6A55",
"C. c #A9665B",
"Z. c #885C64",
"A. c #856966",
"S. c #877878",
"D. c #91726D",
"F. c #AE6C69",
"G. c #AC5766",
"H. c #CC5E5E",
"J. c #7B837B",
"K. c #6A8279",
"L. c #A69324",
"P. c #CBAE38",
"I. c #CFA827",
"U. c #84857A",
"Y. c #979073",
"T. c #A6986A",
"R. c #AB8876",
"E. c #AEA774",
"W. c #9E9D5E",
"Q. c #D9AB47",
"!. c #D5B449",
"~. c #DAB354",
"^. c #E7B054",
"/. c #CA8875",
"(. c #C9BA6A",
"). c #D2B772",
"_. c #E0A762",
"`. c #FEF053",
"'. c #EDD56C",
"]. c #FBF16E",
"[. c #DFCF5F",
"{. c #D6C74E",
"}. c #757C83",
"|. c #857C84",
" X c #927784",
".X c #B97580",
"XX c #788786",
"oX c #77979D",
"OX c #838383",
"+X c #8B8C8C",
"@X c #888886",
"#X c #968989",
"$X c #999588",
"%X c #8B8A94",
"&X c #968C96",
"*X c #8A9696",
"=X c #949494",
"-X c #9B9B9B",
";X c #979897",
":X c #8A928C",
">X c #A59999",
",X c #B08D8D",
"<X c #98A598",
"1X c #A8A498",
"2X c #B1AD90",
"3X c #9B9CA2",
"4X c #8A94A3",
"5X c #A59DA5",
"6X c #B49AA7",
"7X c #9BA5A6",
"8X c #90A8AB",
"9X c #A3A3A3",
"0X c #ABABAB",
"qX c #A7A7A8",
"wX c #B5A9A8",
"eX c #B5B4AA",
"rX c #ABAAB3",
"tX c #ABB4B9",
"yX c #B3B3B3",
"uX c #BBBCBB",
"iX c #B6B7B8",
"pX c #AFB0AF",
"aX c #D6989A",
"sX c #CB8F91",
"dX c #CBA898",
"fX c #D39BA2",
"gX c #C9AAA7",
"hX c #C3BAB8",
"jX c #D0AEAD",
"kX c #EEB3B5",
"lX c #E89798",
"zX c #B6C8BD",
"xX c #BFC587",
"cX c #D0CBB2",
"vX c #E8D99F",
"bX c #B7BCC3",
"nX c #C5BCC3",
"mX c #F6BAC1",
"MX c #B8C9C5",
"NX c #C4C4C4",
"BX c #CACACB",
"VX c #C8C7C7",
"CX c #D7D7D6",
"ZX c #D1CCC8",
"AX c #FED9D6",
"SX c #F4D0CE",
"DX c #FDE6DA",
"FX c #F0EBD9",
"GX c #FEDAE4",
"HX c #E0DFE7",
"JX c #E7E7E8",
"KX c #FDE8E7",
"LX c #FDFEFD",
"PX c #FAF7F7",
"IX c #F5F1F0",
"UX c #DCE3E0",
/* pixels */
": : : 4 2 2 2 2 l 1 2 2 6 1 ; v s * 3 l 2 2 z * * > , , > > : 2 l 2 2 1 1 a > * 3 < 2 2 2 6 < < 2 2 2 4 < < 3 3 < 1 4 4 4 - - 3 * 3 4 2 y : > > * * > > , 6 6 $ , % $ $ , 4 < ",
"6 4 4 1 1 1 4 6 ; 1 1 1 4 5 6 # * s 4 2 x l < 3 3 4 4 , > 3 4 6 2 2 6 6 4 # ; 3 > 5 4 ; - < 3 5 1 2 2 4 3 3 3 3 5 4 1 4 6 6 6 3 3 3 1 : y : , > d * > 4 ; ; 1 6 $ , , > 4 4 < ",
"V I P P T T T T A T Z C C C C S ;XeXwX>X6XwXpXBXpXyXiXiXtXtXtXtX7X;X;X=X) ; , 6 > ) +X&X5X=X=X@X=X=X;X:X:X*X:XJ.T M - ; 4 t n M B B N N N N N m v v V P P V A V A E E P P P P ",
"P P P P A V V S Z Z Z C J S m 1XcXZXZXcXZXVXhXuX0XyXuXMXbXtXtXtX7X%X+X-X$X; 6 , W cXeX9XeX9X0X-X-X9X9X-X<X7X;XOXQ M - ; t Z ( OX}.|.S.S.S.S._ ( _ ` P B v V V v B I B x B B M ",
"` T T T J E Q ~ J Z F t U F m CXJXcXeX0X1XeXcX1X#X$X>X>X>X&X&X;X9X:X@X$X#X@ : : 1XUXpX+X=X+X>X#X$X-X-X;X-X9X;XOXE M 1 ; 6 F @X5XhXiXyXiXiXiXyXrX6X&X%X|._ _ _ ^ ) / U Q W U P ",
"rXpXyXeXeX2X2X2XE.T.V.e h j h gXCX1X1X1XY.<XcX2XY.Y.Y.Y.Y.Y.Y.$X$XY.Y.Y.L % y h 2XcXeX$X1X1X1X$X$X$X$XY.$X$XY.^ L N : @ : F 1XZXSXCXCXUXUXHXHXSXSXjXcXcXxX2X2XdX2X2X2XwXuXyX0X",
"VXVXZXcXcXxX(.(.[.'.'.P.L.I.P.[.Y.A.$XeX2XE.E.T.E.T.W.W.T.T.W.W.T.T.W.L k w w e ).dXE.W.W.T.T.T.E.T.T.T.T.T.Y.W.h h % % e L E.vXvXvXcXcXMXeX1XT._.P.P.P.{.[.'.'.[.vXvXcXcXcXZX",
"&X$X$XE.E.).vX].c.I.`.].`.`.].'.j y e L E.xX).).).).(.(.).).(.(.(.(.).(.).).).).).(.(.(.(.).).).).(.(.).).).).).).).).).(.(.).).(.(.E.E.U.K % o '.].`.`.`.].P.f {.'.'.E.T.$X>X",
">XS.2XY.E.vX'.vX].`.`.`.`.I.`.`.x.y e w k W.^.Q.^.^.^.Q.Q.^.!.!.!.P.P.~.~.^.Q.Q.Q.^.P.!.!.!.~.~.!.!.^.Q.Q.Q.^.Q.~.!.!.!.!.!.Q.Q.P.!.(.k h % w w ^.`.{.`.`.`.`.].].vXvXE.E.2XqX",
"S.#X1XV.L W.x.k L.L.L.P.!.L.L.x.j i 2.r w e k.k.:.k.l.k.k.k.f f f f f f l.L.x.f c.c.l.f f f k x.f f l.f l.k.l.f f f f f f l.l.l.k.k.l.@ % % r f c.I.I.{.P.L.L.L.L.L.W.W.Y.1XeX",
"-X=X:X$XY.L L L k k e % e e j D.SXsX2.' 9 8 q 8 8 8 8 w w w % % e % e @ % @ % @ e % w w w % , , , % % w e w w w % @ o @ @ w w 8 9 ' X.9 8 r r z.z.C.x.x.k k L V.U.L S.$X;X#X+X",
"XX*XJ.J.~ ~ J.^ ^ J N $ : : U hXKXaX3.*.;.>.X.X.9 9 q p p y t h j r n.u y & = 4 g e i i i c C v n A N x c i p i i e 8 8 r r r  .+.%.%.=...:.q i m.D.! ^ ^ U.U.U._ / |.-X5X3X;X",
"*X*X3X;X;X;X:X@XJ g g ; 5 ; g eXcX/.r.d.t.0.%.%.6.$.&.| } } 0  .:...3.2.v.sX#XG dX2.3.1.,.2.Z./ : A.G i 2.,.,.,.,.,.....=.-.e.e.w.i.5.0.o.X.0 z.Z.&X%X;X*X-X:XJ.&X%X%X&X4X%XOX",
"*XXX*X7XqX=X_ OXW M > = 5 , m eXFXlXq.p.8.8.6.6.8.7.4.$.+.o.] ] o.+.*.1.2.GXjXV.AX3.-.q.*.} m.,Xo Z.n.p q } | | | &.-.e.0.9.i.i.i.u.8.7.O.;. .N.A.>X3X3X%X*X*X*X+X%X%X|.%X=X*X",
"_ OX@XW E ( Z n n 4 $ = 4 - n :XzXdXg.j.y.7.6.t.8.8.6.q.*.@.o.o.@.#.6.<.3.SXdXV.DX:.$.9.$.' N.,Xo D.n.q 9 ' ] o.O.@.6.t.i.p.a.p.u.u.i.y.6.&.0 u D U.OX%X|.|.}.}.U.U.^ ^ _ ) ) ",
"Z Z C C C M n 5 = 1 - 1 4 1 M XXMXjXg.f.u.i.5.4.8.7.6.6.$.@.o.O.#.4.7.e.3.AXgXm.DX>.0.5.@.{ M.R.. D.z.q 9 ' ] o.@.#.5.8.p.a.a.a.p.u.u.8.5.&. .u D L C Z Z U P Z K S S S C C V ",
"5 5 6 4 4 1 1 4 - - - 5 6 4 C T tXkXr.p.u.8.d.7.8.5.6.6.#.@.O.O.@.4.8.9.=.AXgXZ.GX<.5.4.o.X.N.,X. D.v.0 ' ' { [ @.4.7.y.u.p.a.a.p.u.u.8.5.+. .i h N M n n M M n g g g g 5 5 l ",
"; ; ; ; ; ; - - 4 4 4 5 6 4 m V 7XkXr.p.u.y.f.8.7.5.4.$.#.@.O.O.@.4.y.8.=.AXjXY GX<.7.5.o.X.M.,X. D.v.} ' ' { [ #.5.8.u.u.p.a.a.p.p.u.8.4.+. .8 y 6 5 6 1 4 1 > - - - - - - ; ",
"4 1 1 - 4 4 4 4 4 6 4 5 6 5 C m :XSX0.a.u.y.f.7.7.4.#.#.#.O.o.o.O.#.y.8.-.AXgX! GX<.7.7.@.] B.,Xo D.v.} ' ] { [ #.5.y.u.u.p.p.p.p.s.u.8.4.+.0 8 : 4 5 6 2 1 - ; - - - - - - - ",
"5 6 6 6 5 5 5 6 4 6 4 5 5 n A m _ SX0.a.u.y.d.7.5.4.#.@.@.O.o.o.O.#.y.y.-.SXgX! GX<.7.8.#.[ B.,Xo D.v.} ' ] [ o.#.5.y.u.u.p.p.p.p.s.p.8.4.;. .8 : : 6 4 1 4 1 - - 4 1 - - - - ",
"6 4 4 4 6 6 6 4 6 5 6 5 6 5 m M W kX0.a.u.y.i.7.5.#.@.@.@.O.[ [ O.#.y.y.%.SXgXL GX>.7.7.#.[ B.,Xo D.v.} ] [ o.O.4.5.8.y.u.p.p.p.p.s.u.8.4.+. .8 y 4 4 6 5 x 5 6 5 5 5 5 5 5 5 ",
"Z A C C C m M n 5 n 5 n 5 5 m m U fXr.a.u.y.8.7.5.#.#.@.@.O.[ [ o.#.8.8.-.SXgXL KX>.6.5.@.{ B.,X. D.v.} ] o.O.@.#.5.7.y.i.p.a.p.p.p.u.8.4.+. .p : : 6 l M m m M M M M M M M M ",
"9X-X;X=X=X+X@XOXW W E E M 6 M m A .Xr.p.u.y.8.7.5.4.#.#.#.O.o.[ o.O.5.0.=.AXgX! KX2.-.#.o.' B.,X. S.n.} ] o.O.@.#.4.7.y.u.p.a.a.p.p.u.8.4.o. .i G _ %X;X3X5X-X-X;X;X-X-X-X-X-X",
"BXBXNXBXBXBXBXNXyX9X=XOXC - 6 l C G.r.p.y.y.8.7.5.4.4.4.#.@.o.o.O.@.6.-.>.AXgX! KX2.:.X. .q m.,X  S.n.q ' [ o.O.@.#.7.y.p.a.a.a.p.u.u.y.5.+.:.j D.>XnXBXBXBXBXVXBXBXBXBXBXBXBX",
"BXNXNXBXNXuXNXNXiX0X+X) C 5 ; l P c r.p.y.8.8.7.7.5.4.5.5.#.O.O.@.6.q.*.3.GXgX! KX,XR.dX,XS.J.:X  S.H p 9 9 { [ o.#.7.u.p.p.a.s.s.u.u.8.4.+. .N.,XhXnXnXBXNXVXVXNXNXBXNXNXNXNX",
"yX0X0XyX0X0XyXyX;X=X) _ A 5 - l A c r.p.y.8.8.8.5.7.7.5.4.@.o.&.$.g.h.H.lXAX6X/ PXDXDXFXZXMXzX8X  S.S.m.u r 0 ' { %.7.y.s.s.u.s.s.u.u.8.4.+. .N.S.wXpXrXyX0XeXyX0X0X0X0XyXyXyX",
"9X;X;X-X;X;X9X9X-X;X) _ A 5 ; 5 A c r.p.y.8.8.8.7.8.7.5.6.@.[ | ..b.lXSX,XF F U PXKXKXIXUXCXNX;X. O + N Y.D.u r ' +.9.u.a.f.u.p.s.u.u.8.4.+. .n.D.qX9X3X9X3X9X9X9X9X-X-X9X9X9X",
"-X;X-X9X-X-X9X9X9X-X) W M 5 ; 5 A H r.p.y.8.y.8.8.8.5.6.q.o.'  .v.aX,X! 5 _ %XiXJXZXhXcXhXhXhX6XF N O   O t D C.B.| 4.d.s.p.p.u.p.u.u.8.4.+. .n.D.qX9X3X9X-X-X-X9X9X-X-X-X-X-X",
"9X-X9X0X9X9X9X9X-X;X_ E M 5 ; l A n.r.p.8.8.y.8.8.5.4.$.+.'  .N.gXD ; a ` IXVXW Q E F m : & & & o 2 J._ s   o H sXB.o.9.f.p.p.s.p.u.u.8.4.+. .z.A.>X9X3X9X-X;X;X-X9X9X-X;X;X-X",
"9X;X9X0X9X-X-X-X-X=X_ Q M 5 ; 6 C n.r.p.y.8.8.8.7.5.6.$.] } 2.F.D 6 Q *XMX*XQ @XuXqXqXuXiX&XS.|.F +   # A Z 5 . H /.H.$.d.s.u.p.p.u.p.8.4.+. .u A.>X5X3XqX-X;X;X=X-X9X9X-X-X9X",
"9X;X9X9X-X-X-X-X9X-X) E M 5 ; 6 B c r.p.y.8.8.7.7.5.q.&.' 2.M.G . Q CX7XB B MXLX@XJ Z -XCXCXiXyX0X@XV     2 Q 5   D lXh.7.f.p.p.p.u.p.7.4.+. .u A.>X5X5X9X-X;X;X=X-X9X9X9X9X9X",
"9X-X9X9X-X-X9X9X9X;XW Z 5 5 - 5 n u r.p.y.y.8.5.7.4.$.|  .M.m.$ Z ;XQ B ( UXJXJ.S M 5 A 9XCXBXpXpX:X:XXXx . t Z >   R.H.6.f.p.a.p.p.p.7.4.&. .u A.>X5X3X9X;X;X-X;X-X9X9X9X9X-X",
"-X9X9X9X9X9X9X;X;X;X) A n 5 6 6 M aXe.u.p.y.t.0.5.4.@.| p D.@ 4 iX_ ; E JXJX) A M C 6 5 Z BXBXuXqX3X8XXXXXC o & _ $ . /.h.i.a.p.a.s.u.7.4.&. .u m.>X9X*X;X-X*X-X-X;X;X;X9X9X9X",
"-X9X9X9X-X-X;X=X-X=XW M 5 4 4 6 U.kXg.i.p.u.6.#.4.6.q.| G.Y . OX_ Z +XCXCX|.Z Z M M 5 E =XCXNX0X) = # v J ) G o = J + V.3.9.f.p.a.a.u.8.6.{ 0 u A.>XqX;X7X3X=X-X-X;X=X;X;X;X=X",
"( ) @X+X+X=X-X-X=XOXZ n 5 6 4 6 @XfXg.d.s.s.8.7.i.4.$.3.F.: : OX; _ JXJX+XC E C M M A +XBXJXiXOX+ X   X > Z S.F   C > h /.-.d.s.a.a.8.4.@.| 0 r h ^ J._ J.) ^ _ ) ) ) OX+X+X+X",
"Q W ( ( W W ( _ _ E m n n 6 4 5 @XfXb.g.q.#.+.%.$.-.' N.D.O _ ) 4 =XCXNX( A Z Z M C _ 0XIXCX=Xn +   . o   6 OXOXn = V O aXb.*.r.4.r.r.;.{  .i i h E ~ Q ~ ^ ! ! Q E E Q W Q E ",
"M M C A A Z E Q C m 5 5 5 - - 5 @XVXAXIXKXAXmXkXlXsX.X,Xx O <X> J yXCXNXE E Z A n m ) NXIX9XE + O   .     O v }.}.* _ t jXAXAXAXSXkXkXfXfX,XG : - 6 5 5 5 t t t n M M M m C C ",
"C C m M n 6 6 5 5 5 4 ; - - - 5 =X-X=XU.E m 1 = & 2 O . O S K d =XNXJXCXE Z E m m n A =X0XA 4 +   . .   o     R oXz l l - E ^ L _ Z n ; X . O 2 < 1 1 - ; $ $ $ = ; - 6 5 M M ",
"6 4 4 6 6 4 4 6 4 6 - ; 6 5 5 x =X9XzXyXqX7X*XXX}.P B l x _ a * VXuXCXJXiXQ A E C M 4 C A = ; O O       . X X + oXb 7 %XXX<X<XpX*XXX}.` I x x l 2 < 1 - ; ; $ $ 1 4 - - - - - ",
"; = = - - ; = ; ; 6 6 6 m A m M #XgXPXPXKXAXmXjX6X,X,X>XOX~ s S iXCXCXCXLXuXW C n A 6 4 4 = 4 + + - O   .     X 8Xl X %XCXIXAXKXSXSXmXfX,X,XD.: 5 1 4 5 6 6 6 , - - ; ; = ; ; ",
"m M M Z E W OX@X) ) @XOXOX+Xn ; S.aX3.g.q.0.%.%.%.;.2.M.Y.^ X T yXW yXuXLXLXuX@XA M 4 6 4 ; - O 5 =XW + .     > 5X1 X ;XcXF.3.g.0.0.e.%.] :.r y y , 6 Q V S C m M M 5 5 5 5 M ",
"E ( =XuXBXCXJXJXCXCXCXBXiX0XC , S.sXg.j.p.p.y.8.5.6.{ B.A.U.  E ;X- n _ JXLXLXCXM M M 5 - = ; 1 ) %X0X_ ;   n ( &Xt X ;XZXF.g.j.s.p.u.y.#.;.9 r D.$X=X*X` ` U B C m M M M M Z ",
"E _ -X0X9X-X0X0XqX0XyX0X9X-XM $ >XaX<.9.y.u.y.5.6.%...F.D.U.  E ( 4 ; 5 +XCXLXiXm M n 5 5 - = - m XX:X<X~ E F  X#Xx   ;XSXG.g.j.a.p.y.8.#.;. .M.D.hXuXiXqXrXrXqX;X=X) Q m M Z ",
"_ OX9X;X+X+X=X=X=X;X9X9X9X9Xm - S.R.3.<.e.e.-.;...9 r M.D.^ O Q m 5 M - 5 ( =XZ m A 4 - 6 ; = O   + K.*X@XQ #X/ >Xn   $XjXC.3.g.e.r.$.o.'  .r D.D.hXiXMXbXbXtXBXNXiX-XOXC 5 M ",
"E ) 0X-X;X;X=X+X=X;X9X-X;X;XM = Y.ZXAXIXKXAXkXjXjX6X#X#X|.S.a a _ ; 5 n M m C A n Z 6 5 5 O 6 O +   # K.` J./  X=X5 + wXSXAXDXDXSXAXmXkXfX,XZ. X|.NXpXqXqX7X;XqX;X=X@X) C 5 C ",
"W ) uX-X9X9X-X+X;X;X-X-X-X-Xm 1 #X>XJ.~ J m x 6 * * X X . A A # uXm 4 5 A E C E M 5 5 -X-Xn 4 + O X     ~ _ / |.7X3 # M t F J J ~ V 1 7   . O / ( bX0X-X7XpX9X-X) ) _ ( C 5 m ",
"E _ iX+X=X-X-X+X>X-X>X;X;X;XM ; &XrXtXzXuXqX#XA./ ` v B # g ^ $ ;X+XE n M Z Z m A 5 ) IXIX;Xm +       X   V #X/ &X< R 3 W >XqX0X<X*X+XOXC x t ( ( iXqX-X-X0X>X#XOXOX) _ C 6 5 ",
"Q OXBX=X;X;X=XOX;X;X-X;X;X-Xm - ) hXKXPXKXSXmXkXaX,X,X,XF O $XM n 0XqX_ m m Q Z m ( UXIXCXJX:XO + .     X a S. X/ + XX= gXKXDXAXAXSXkXfX,X,XD.! ^ -X;X9X>X=XS.U.) ) ( ( Z 5 n ",
"Q |.iX9X=X=X+X@X=X-X-X=X@X+XC ; }.gX3.e.0.0.q.*.*.=...,.sX@ m J.# =XCXNX=XE V V ;XVXJXPXCXzXR * +         A S.Y + n N w lX=.-.e.e.e.e.-.+.' i m.A.0XqX-X5X=XOX_ @X_ ( W A 5 5 ",
"Q ) iX9X;X;X=X+X-X;X=X+XOXOXM = ) fXe.p.p.p.u.y.7.6.$.=.F.N + XXT m CXIXLXeXUXMXPXLXLXIXnX` s # +         /  Xt + A o j b.r.i.p.p.u.u.8.4.o.:.z.A.>X9X;X-X+XU.) ) ( ( Q m 6 6 ",
"E ) iX9X-X-X;X=X;X+X+X+XOX) 5 ; ( aXe.p.p.u.u.y.7.6.#.&.2.Z.O M qXT n =XJXLXPXLXPXKXPXGX6Xt O O + + X 6 !  X2   R 3 . F.>.r.u.a.p.p.u.8.4.+. .i H |.@X|.|.( ( ~ ( W ( E M 5 5 ",
"Q ) iX9X-X-X;X;X+X+X+X=X+XOXn ; ` aXr.p.u.u.u.y.8.5.#.&.,.M.G o _ 7XV 4 =XLXPXLXLXPXPXGXnXU : &     3 |.S.o . ` R   D sXh.7.s.a.p.p.u.8.4.+.0 8 y F P P U A Z Z A A C n - 4 5 ",
"Q ) uX9X;X-X=X=X+X=X-X;X@XOXM - W aXr.p.u.u.y.8.7.5.@.+. .2.F.y y &X>XQ g VXLXPXPXIXJXPXJXpXm X + X W U : . M T X # dXH.r.y.f.a.p.p.u.8.4.+.0 8 @ : ; < 1 - 4 - 6 6 5 4 ; 6 5 ",
"Q J.uX9X;X-X=X=X-X9X9X;X) ) M - T aXr.p.u.u.y.7.7.5.#.$.| 2.2.F.@ N >XZXE W qXBXIXPXJXIXUXCX3X_ A 3 4   & C E + X R.F.<.w.f.a.p.p.p.u.8.4.+. .8 y 4 < 4 6 1 6 - = ; 4 6 4 5 n ",
"Q ) uX9X-X9X-X-X9X9X-X;X@X) M - C sXr.p.u.y.y.7.7.5.4.$.{ .. .F.R., g OXJX7X}.T ` XX<X8X*X_ C 5 ; + O n _ g X O D./.1.q.d.a.p.p.p.p.u.8.4.+. .r y : 4 l l 6 5 4 6 5 n 5 4 4 5 ",
"Q ) uX0X9X9X9X9X-X=X+X-X=XOXn - M sXe.p.u.y.8.7.7.4.5.4.o.] ..:.R.Y.6 4 E MXtXtX7X` R V T V E / C Q E M + + % D./...*.d.s.p.s.p.p.p.u.8.4.+. .i N C Z W W E W Q W Q Q Z n 5 m ",
"Q @XiX-X=X;X9X;X-X9X;X=X) _ M ; M C.r.p.p.8.y.7.5.4.5.4.@.o.{ X.r sXSXS.N C E ) LXIXJXIXUXNXyXuXX   . . : A.V.C. .&.w.d.s.a.a.p.p.p.y.y.4.+. .M.D.>XVXUXBXCXCXCXNXiX9X@XM 4 C ",
"W OX0X;X-X9X9X=X;X9X-X-X) W n ; a M.e.p.p.y.i.9.5.4.5.4.@.O.o.{ ..2.G.aXkXjXS.! PXFXDXDXZXhXeXpX= C F G m.M.2. .&.6.w.d.s.a.a.p.p.p.u.y.4.+. .C.,XnXUXJXCXJXCXUXBXyX;X) M 6 C ",
"E @XiX9X-X-X9X-X;X-X;X-X) Z 5 4 6 n.e.p.p.y.i.9.5.4.4.4.@.O.O.O.O.*.1.3.G.GXjXG PXSXAXAXSXkXeXiXa +XG u r 0 ' { $.5.8.i.p.a.a.a.p.p.u.y.4.+. .C.#XhXBXBXnXVXiXzXNX0X+X( M 6 M ",
"E OXiX9X-X;X-X;X=X=X+X=XW C 6 6 6 j 0.p.a.u.d.9.5.4.4.4.@.O.O.@.#.q.*.1.,.AXkXm.AXC.B.H.B.n.D.eX> ;XH q 9 9 ] +.#.5.8.u.p.a.a.a.p.p.u.8.4.+. .M.A.yXyXrX0XyXqXpX0X;X) E n 4 n ",
"W ) 9X;X9X9X;XOX=X@X) @XE M - 4 5 u r.a.a.u.d.9.5.4.4.4.@.O.O.@.4.4.$.h.3.GXaXm.AX3.-.*.&.} G.jX# ;XN. .| ] [ [ #.5.8.u.p.a.a.a.p.p.u.8.4.+.0 N.G wX9X9X9X0X9XqX;X=X) E M - 5 ",
"E ( 9X;X-X=X+X) +X@X) @XE M ; 4 n u r.a.p.p.d.9.6.4.4.#.@.O.O.@.4.5.4.*...GXfXn.SX>.r.w.q.&.G.dX- ,X2.' ] ] ] [ @.4.8.p.p.a.a.p.p.p.y.8.4.+.0 n.G 5X;X9X-X-X1X-X=X=X) W m - 6 ",
"M E 9X;X+XOX@XOX+X@X) ) C 5 - 5 M i r.a.p.p.d.9.6.4.4.#.@.o.o.@.5.7.7.g.3.AXsXV.DX>.w.7.@.&.C.gX, ,Xb.| [ [ X.X.o.4.y.p.a.a.p.u.u.p.u.8.4.+.0 n.A.5X-XrX5X;X9X=X+X=X) W C 4 4 ",
"M Z ;X=X+X@XOX) OX) Q E 6 ; ; n M i r.a.p.u.i.9.6.4.4.4.+.o.o.O.#.7.9.q.1.AXdXV.DX| 9.d.5.o.C.gX, R.b.| ] ] ' X.O.4.8.p.a.a.p.u.u.p.u.y.4.+. .N.A.>X;XyX;X%X-X+X+X+X_ Q A 6 4 ",
"M M _ ) ( W Z Q A Z m 4 = - 5 5 n i r.a.u.y.9.6.5.5.5.4.O.[ o.O.#.5.7.6.-.KXdXm.KX<.w.y.5.+.B.gX$ ,X3.{ ] [ [ o.#.4.7.i.p.a.a.p.p.u.p.y.5.O.X.z.A.&X5XrX;XqX;X_ +X+X) ( C - 4 ",
"m M C m m M 5 5 5 5 5 4 6 5 5 6 n u r.a.y.8.t.4.5.7.7.5.O.[ o.O.@.4.7.9.-.DX2XG KX<.w.8.5.+.C.gX; #X2.' ] [ o.O.4.5.7.9.i.a.a.a.p.u.u.8.4.O. .N.m.#X;X;X%X*X*XXX+X+X) W m - 4 ",
"M m 5 5 5 6 6 - 4 - - - 4 6 5 5 n i e.a.u.y.9.5.7.7.7.5.@.o.o.O.O.#.7.9.-.DX2XF KX3.q.9.5.+.C.gX> $Xv.} ' ] o.O.4.5.7.i.s.a.a.p.u.y.y.7.#.+. .N.A.>X5X%X;X=X;X=X+X+X) Q m - 4 ",
"C E m M M 5 n 5 6 4 4 6 - - 6 M v i r.a.p.u.8.7.7.7.5.4.+.o.O.O.O.#.7.9.-.GX1XD KX3.q.9.5.o.C.gX> #Xv.} ' ] [ O.#.5.9.i.s.a.a.p.i.i.i.7.#.&. .n.G #X=X|.;XOXOXU.+X+X) Q M - 4 ",
"C Z 5 5 5 6 M 5 n 5 6 5 6 4 6 v 3 y 0.a.p.u.y.7.7.5.5.#.+.o.O.@.O.#.9.w.e.GX2XD KX3.q.9.5.O.B.gX; #Xv.} ' ' ] o.@.4.6.9.i.s.p.p.s.s.d.9.6.&. .n.H S.@X) ;X|.U._ +X+X) E M - 6 ",
"m 5 4 M Z ( @X) ) Z n 5 5 6 6 6 3 y 0.a.a.u.y.7.7.5.4.#.+.o.O.@.@.4.9.9.e.GX2XD KX3.q.7.5.+.B.gX: #Xv.} ' ' ] o.#.4.6.9.i.p.p.p.s.s.s.y.5.+. .u G S.OX|.&X#X#X@XOX@X( E M - 6 ",
"m 5 W 9X0XNXBXNXyX9X@XW Z C M v s y %.p.p.u.u.8.7.4.#.@.+.o.O.#.4.5.8.9.-.DX,XH KX<.q.7.5.+.B.gX: ,Xv.} ' ] [ O.4.7.8.u.p.a.a.a.a.a.a.y.5.+. .u D _ _ OX|.|.@XS.( ) Q A 5 ; 5 ",
"6 5 9XJXBXNXiX0XuXBXCXNX9X) E Z v y %.p.p.u.u.y.7.4.#.@.O.o.O.#.4.5.7.0.=.DX,Xh KX<.9.8.5.+.B.gX: ,Xb.} ' ] [ O.4.7.y.u.a.a.a.a.p.p.p.8.4.;.0 u D ( ) +X/ ) ) W Q ( Z m 5 ; 5 ",
"5 6 uXNXiX9XiX0XyX0XyXNXCXCXiX9X@XN.0.u.s.p.y.y.7.5.#.@.o.o.@.#.#.5.7.0.>.DX2Xh DX<.9.7.7.[ F.gX: sX3.| ] ' +.O.4.5.8.y.p.a.a.s.s.i.8.7.#.{ 0 e t S A V V A A m n M M 5 - 4 5 ",
"m 6 0XiX0X9X9X=X;X-X9X0XiXNXBXZXVXaXe.u.u.u.i.d.7.5.#.@.O.O.@.#.@.#.9.e.=.DX$Xh DX=.9.y.9.[ C.2X@ ,X2.} ' ' [ o.#.5.7.y.u.p.p.u.u.i.y.7.#.;.0 e $ 4 v l l l 5 6 6 4 - - 6 n M ",
"M 5 yXiX-X=X;X;X9X-X;X;X;XqXiXnXSXkXe.i.y.y.d.9.5.4.#.@.O.O.@.@.-.@.5.w.-.DX2Xg KX=.d.y.7.o.C.gXy ,Xb.}  .' ] [ @.4.5.8.s.s.s.p.p.s.p.8.4.+.9 8 % ; < 3 < < 3 3 - ; 1 5 M M M ",
"n n yXiX-X=X-X0X0X9X;X;X-X9X-X;XgXkX-.0.0.0.w.q.*.*.&.&.&.| { { { o.w.r.&.GX1Xh KX=.w.y.7.&.M.wX$ ,Xv.9 9 9 ' { *.q.w.d.d.s.p.p.p.p.p.8.5.-...8 y 4 6 l l z s v v 5 t n n M C ",
"M n 9XyX9X0X-X9X=X=X=X-X0X0X-X=X6XsX3.;.>.>.<.<....... .} 0 9 9  ...-.<.3.GX6Xt AX3.e.#.+...M.wX> #Xn.p 8 q 0 ' o.*.w.d.d.f.f.f.f.d.d.9.$.o.9 8 : : 6 l l l s a 5 5 M A A A Z ",
"M M 9XyX9X9X=X9X=X;X9X9X9X9X-X3XrX>XF.B.z.z.2.v.N.N.N.N.n.v.u u r q 9 9 p sXG o aX2. .' 0 q c |.+ A y 8 @ @ 8 8 } | 1.<.g.q.q.e.&.=.<.1.| } p y : 6 B B C m M M S C C A Z Z Z ",
"M m 9XyX;X9X=X0X9X9X9X-X-X;X;X3X8X4X2XR.V.A.m.Z.G G G G F F D D H G V.G H F P B c i i h h @ & & 7 z t H H D L G m.M.m.N.z.i e w w i N.M.M.m.! _ XX8XbXbXnXhXeXwX-X+XQ n 5 m Z ",
"M n +X9X-X0X;X9X0X-X=X=X9X0X9X3X8X4X$X2XL U.@X&X_ _ _ ) ) _ ( ~ ^ ^ J ~ U.Q _ ` / S.L K K > 1 < 3 3 x  XS._ J.^ S.S._ ^ ^ J g > a ~ $X#XS.S.) _ XX8XMXVXnXhXeXwX0XyX;XQ M m Z ",
"m A Z W ) +X+X=X+X+X+X+X+X+X+X@X%X@XU.U.U.OX@X@X@X@X@X@X+X@X@X@X~ ( _ ) ) ) ` W ! W Q J S g 1 ; < 5 ( wXuXeX0XpXeXqX-X-X;XJ.S > ) 9XqX;XqXqX=X=X7XqXqX0X9XqX0XwX0X9X9X) M M Z ",
"n n 5 5 5 n n n 5 n n n n 5 5 5 n n x n n n n 5 n n n n n n n n 5 5 5 5 5 5 6 6 5 5 5 5 6 4 - ; n M W =X-X;X;X;X;X;X;X;X=XOXE C 9XiX0X=X-X0X9X0X-X9X9X9X9X9X9X0X;X=X=X_ n 5 A ",
"A m n 6 4 4 4 4 4 4 6 6 4 4 4 4 4 4 4 4 4 4 - - - - - - - - - - - ; ; ; ; ; ; ; = = = = = ; ; ; n n C E Q W ) ) ) ) OXOX_ E A m +X9X-X+X=X;X=X;X=X;X;X;X=X=X;X-X;X;X;X) M n Z ",
"C m n 5 6 6 6 6 6 6 6 6 5 5 5 5 5 5 5 5 5 6 6 4 4 4 4 4 4 4 4 4 4 4 - - - - 4 4 6 4 4 4 - - - - 5 6 5 5 5 M A C A Z Z A M 5 6 4 Q ) OX) OXOX) _ _ _ ) ) _ _ ) ) ) ) _ E n n C ",
"Z Z A m M M n 5 5 5 5 n n n n n 5 5 6 4 4 6 6 4 4 4 4 4 4 4 4 4 4 4 4 4 6 6 6 6 6 6 6 6 5 6 6 6 n 5 5 6 4 5 5 6 5 5 t 5 6 4 4 6 5 n n 5 n M M M M M M M M M M m M M M M 5 M A ",
"Z Z Z Z Z A m M M M M M M M m m l 5 6 6 6 5 5 5 5 5 5 5 5 5 5 5 6 5 5 5 5 5 5 5 4 6 6 5 5 5 5 5 5 5 5 5 6 5 5 6 6 6 6 6 6 5 5 5 5 5 5 5 5 5 5 5 6 6 6 6 6 6 6 5 5 5 5 5 n m C ",
"6 6 5 5 5 5 5 6 6 6 6 6 6 6 6 6 5 5 6 6 5 5 5 6 5 5 5 5 5 5 5 5 6 6 6 6 5 5 5 5 5 5 5 5 5 5 5 5 5 - 6 5 5 5 5 5 5 5 5 6 6 5 5 5 6 4 6 5 5 6 6 4 5 5 5 5 5 5 5 5 6 6 6 6 5 5 5 "
};
